<?xml version="1.0" encoding="UTF-8" standalone="no"?>
<svg width="133" height="100" viewBox="0 0 133 100" version="1.1" xmlns="http://www.w3.org/2000/svg" xmlns:xlink="http://www.w3.org/1999/xlink" xml:space="preserve" xmlns:serif="http://www.serif.com/" style="fill-rule:evenodd;clip-rule:evenodd;stroke-linejoin:round;stroke-miterlimit:2;">
    <g transform="matrix(1,0,0,1,-3756.6,-9028.6)">
        <g transform="matrix(0.511514,0,0,0.58047,3272.77,5041.6)">
            <g transform="matrix(1,0,0,1,-0.897453,-1.47644)">
                <g transform="matrix(1.93053,0,0,1.87334,-6251.36,-10143.2)">
                    <path d="M3846.87,9089.58C3846.87,9085.33 3843.07,9081.88 3838.39,9081.88L3737.17,9081.88C3732.49,9081.88 3728.68,9085.33 3728.68,9089.58L3728.68,9151.21C3728.68,9155.47 3732.49,9158.92 3737.17,9158.92L3838.39,9158.92C3843.07,9158.92 3846.87,9155.47 3846.87,9151.21L3846.87,9089.58Z" style="fill:rgb(26,26,26);"/>
                </g>
                <g transform="matrix(1.93053,0,0,1.87334,-6251.36,-10143.2)">
                    <path d="M3838.5,9081.88C3842.86,9081.95 3846.78,9085.33 3846.87,9089.48C3847.01,9110.09 3847.01,9130.7 3846.87,9151.31C3846.79,9155.28 3843.01,9158.84 3838.5,9158.92C3804.68,9159.11 3770.87,9159.11 3737.06,9158.92C3732.69,9158.84 3728.77,9155.47 3728.68,9151.31C3728.54,9130.7 3728.54,9110.09 3728.68,9089.48C3728.77,9085.52 3732.55,9081.95 3737.06,9081.88C3770.87,9081.68 3804.68,9081.68 3838.5,9081.88ZM3737.17,9083.25C3733.56,9083.28 3730.28,9086.07 3730.2,9089.5C3730.05,9110.1 3730.05,9130.7 3730.2,9151.3C3730.28,9154.58 3733.41,9157.47 3737.08,9157.54C3770.88,9157.75 3804.68,9157.75 3838.48,9157.54C3842.07,9157.47 3845.28,9154.6 3845.35,9151.3C3845.43,9130.67 3845.81,9110.04 3845.35,9089.42C3845.24,9086.19 3842.09,9083.32 3838.48,9083.26C3804.71,9083.05 3770.94,9083.25 3737.17,9083.25Z" style="fill:white;"/>
                </g>
                <g transform="matrix(1.93053,0,0,1.72274,-6251.36,-8767.5)">
                    <rect x="3729.86" y="9094.25" width="116.794" height="1.5" style="fill:white;"/>
                </g>
                <g transform="matrix(1.95498,0,0,1.72274,-6345.04,-8775.39)">
                    <circle cx="3740.08" cy="9091.52" r="3.639" style="fill:rgb(26,26,26);"/>
                </g>
                <g transform="matrix(1.95498,0,0,1.72274,-6325.08,-8775.39)">
                    <circle cx="3740.08" cy="9091.52" r="3.639" style="fill:rgb(26,26,26);"/>
                </g>
                <g transform="matrix(1.95498,0,0,1.72274,-6398.21,-8685.46)">
                    <path d="M3767.13,9035.71C3769.14,9035.71 3770.76,9037.34 3770.76,9039.35C3770.76,9041.35 3769.14,9042.98 3767.13,9042.98C3765.12,9042.98 3763.5,9041.35 3763.5,9039.35C3763.5,9037.34 3765.12,9035.71 3767.13,9035.71ZM3767.13,9037.09C3768.38,9037.09 3769.39,9038.1 3769.39,9039.35C3769.39,9040.59 3768.38,9041.61 3767.13,9041.61C3765.88,9041.61 3764.87,9040.59 3764.87,9039.35C3764.87,9038.1 3765.88,9037.09 3767.13,9037.09Z" style="fill:white;"/>
                </g>
                <g transform="matrix(1.95498,0,0,1.72274,-6379.63,-8685.46)">
                    <path d="M3767.13,9035.71C3769.14,9035.71 3770.76,9037.34 3770.76,9039.35C3770.76,9041.35 3769.14,9042.98 3767.13,9042.98C3765.12,9042.98 3763.5,9041.35 3763.5,9039.35C3763.5,9037.34 3765.12,9035.71 3767.13,9035.71ZM3767.13,9037.09C3768.38,9037.09 3769.39,9038.1 3769.39,9039.35C3769.39,9040.59 3768.38,9041.61 3767.13,9041.61C3765.88,9041.61 3764.87,9040.59 3764.87,9039.35C3764.87,9038.1 3765.88,9037.09 3767.13,9037.09Z" style="fill:white;"/>
                </g>
                <g transform="matrix(1.95498,0,0,1.72274,-6361.06,-8685.46)">
                    <path d="M3767.13,9035.71C3769.14,9035.71 3770.76,9037.34 3770.76,9039.35C3770.76,9041.35 3769.14,9042.98 3767.13,9042.98C3765.12,9042.98 3763.5,9041.35 3763.5,9039.35C3763.5,9037.34 3765.12,9035.71 3767.13,9035.71ZM3767.13,9037.09C3768.38,9037.09 3769.39,9038.1 3769.39,9039.35C3769.39,9040.59 3768.38,9041.61 3767.13,9041.61C3765.88,9041.61 3764.87,9040.59 3764.87,9039.35C3764.87,9038.1 3765.88,9037.09 3767.13,9037.09Z" style="fill:white;"/>
                </g>
                <g transform="matrix(2.29448,0,0,2.02191,-7749.92,-11439.5)">
                    <path d="M3880.33,9091.03C3878.78,9090.88 3877.21,9090.88 3875.65,9091.03L3874.88,9094.79C3873.39,9095.02 3871.92,9095.41 3870.52,9095.96L3867.97,9093.09C3866.55,9093.74 3865.19,9094.52 3863.92,9095.43L3865.13,9099.07C3863.95,9100.01 3862.88,9101.08 3861.93,9102.26L3858.3,9101.05C3857.39,9102.33 3856.6,9103.68 3855.95,9105.11L3858.82,9107.65C3858.27,9109.06 3857.88,9110.52 3857.65,9112.02L3853.9,9112.79C3853.74,9114.34 3853.74,9115.91 3853.9,9117.47L3857.65,9118.24C3857.88,9119.73 3858.27,9121.2 3858.82,9122.6L3855.95,9125.15C3856.6,9126.57 3857.39,9127.93 3858.3,9129.2L3861.93,9127.99C3862.88,9129.17 3863.95,9130.24 3865.13,9131.19L3863.92,9134.82C3865.19,9135.73 3866.55,9136.52 3867.97,9137.17L3870.52,9134.3C3871.92,9134.85 3873.39,9135.24 3874.88,9135.47L3875.65,9139.22C3877.21,9139.37 3878.78,9139.37 3880.33,9139.22L3881.1,9135.47C3882.6,9135.24 3884.06,9134.85 3885.47,9134.3L3888.01,9137.17C3889.43,9136.52 3890.79,9135.73 3892.07,9134.82L3890.86,9131.19C3892.03,9130.24 3893.11,9129.17 3894.05,9127.99L3897.69,9129.2C3898.6,9127.93 3899.38,9126.57 3900.03,9125.15L3897.16,9122.6C3897.71,9121.2 3898.1,9119.73 3898.33,9118.24L3902.09,9117.47C3902.24,9115.91 3902.24,9114.34 3902.09,9112.79L3898.33,9112.02C3898.1,9110.52 3897.71,9109.06 3897.16,9107.65L3900.03,9105.11C3899.38,9103.68 3898.6,9102.33 3897.69,9101.05L3894.05,9102.26C3893.11,9101.08 3892.03,9100.01 3890.86,9099.07L3892.07,9095.43C3890.79,9094.52 3889.43,9093.74 3888.01,9093.09L3885.47,9095.96C3884.06,9095.41 3882.6,9095.02 3881.1,9094.79L3880.33,9091.03ZM3877.99,9104.08C3884.09,9104.08 3889.04,9109.03 3889.04,9115.13C3889.04,9121.23 3884.09,9126.18 3877.99,9126.18C3871.89,9126.18 3866.94,9121.23 3866.94,9115.13C3866.94,9109.03 3871.89,9104.08 3877.99,9104.08Z" style="fill:rgb(64,64,64);"/>
                </g>
                <g transform="matrix(2.29448,0,0,2.02191,-7749.92,-11439.5)">
                    <path d="M3897.89,9100.45C3898.19,9100.57 3898.36,9100.89 3898.55,9101.18C3899.31,9102.3 3899.97,9103.48 3900.55,9104.71C3900.55,9104.71 3900.85,9105.18 3900.45,9105.59L3897.92,9107.84C3897.97,9107.97 3898.01,9108.11 3898.06,9108.24C3898.42,9109.3 3898.7,9110.38 3898.89,9111.48L3902.22,9112.16C3903.01,9112.39 3902.74,9112.91 3902.77,9113.33C3902.87,9114.68 3902.85,9116.03 3902.74,9117.38C3902.74,9117.38 3902.76,9117.94 3902.22,9118.1L3898.89,9118.78C3898.67,9120.02 3898.35,9121.23 3897.92,9122.42L3900.45,9124.67C3901.03,9125.27 3900.54,9125.58 3900.35,9125.96C3899.76,9127.18 3899.07,9128.35 3898.29,9129.45C3898.29,9129.45 3898.04,9129.95 3897.49,9129.81L3894.27,9128.74C3893.49,9129.67 3892.63,9130.53 3891.71,9131.32L3891.6,9131.4C3891.6,9131.4 3892.7,9134.72 3892.7,9134.72C3892.73,9135.17 3892.29,9135.45 3891.94,9135.69C3890.82,9136.44 3889.64,9137.11 3888.41,9137.68C3888.41,9137.68 3887.94,9137.98 3887.53,9137.59L3885.28,9135.05C3885.15,9135.1 3885.01,9135.15 3884.88,9135.2C3883.82,9135.56 3882.74,9135.83 3881.64,9136.03L3880.96,9139.35C3880.73,9140.14 3880.22,9139.88 3879.79,9139.91C3878.45,9140.01 3877.09,9139.99 3875.74,9139.87C3875.74,9139.87 3875.18,9139.9 3875.02,9139.35L3874.34,9136.03C3873.15,9135.82 3871.97,9135.51 3870.83,9135.1L3870.7,9135.05C3870.7,9135.05 3868.38,9137.66 3868.38,9137.66C3867.79,9138.07 3867.56,9137.68 3867.16,9137.49C3865.95,9136.89 3864.78,9136.21 3863.67,9135.43C3863.67,9135.43 3863.17,9135.18 3863.31,9134.62L3864.38,9131.4C3863.49,9130.65 3862.66,9129.84 3861.9,9128.95L3861.72,9128.74L3858.5,9129.81C3857.7,9130.01 3857.67,9129.43 3857.43,9129.08C3856.68,9127.96 3856.01,9126.78 3855.43,9125.55C3855.43,9125.55 3855.14,9125.08 3855.53,9124.67L3858.07,9122.42C3857.66,9121.28 3857.34,9120.1 3857.12,9118.91L3857.09,9118.78C3857.09,9118.78 3853.67,9118.07 3853.67,9118.07C3853.03,9117.76 3853.24,9117.37 3853.21,9116.93C3853.11,9115.58 3853.13,9114.23 3853.25,9112.88C3853.25,9112.88 3853.22,9112.32 3853.77,9112.16L3857.09,9111.48C3857.12,9111.29 3857.16,9111.1 3857.2,9110.91C3857.41,9109.91 3857.68,9108.93 3858.02,9107.97L3858.07,9107.84C3858.07,9107.84 3855.46,9105.51 3855.46,9105.51C3855.2,9105.14 3855.45,9104.67 3855.63,9104.3C3856.22,9103.08 3856.91,9101.91 3857.69,9100.81C3857.69,9100.81 3857.94,9100.31 3858.5,9100.45L3861.72,9101.52C3862.47,9100.63 3863.28,9099.8 3864.16,9099.04L3864.38,9098.85L3863.31,9095.63C3863.11,9094.83 3863.69,9094.81 3864.04,9094.57C3865.16,9093.81 3866.34,9093.14 3867.57,9092.57C3867.57,9092.57 3868.04,9092.27 3868.45,9092.67L3870.7,9095.2C3870.84,9095.16 3870.97,9095.11 3871.11,9095.06C3872.12,9094.72 3873.16,9094.44 3874.21,9094.25L3874.34,9094.23C3874.34,9094.23 3875.05,9090.81 3875.05,9090.81C3875.24,9090.4 3875.77,9090.38 3876.19,9090.35C3877.54,9090.25 3878.89,9090.27 3880.24,9090.38C3880.24,9090.38 3880.8,9090.36 3880.96,9090.91L3881.64,9094.23C3882.84,9094.44 3884.01,9094.75 3885.15,9095.16L3885.28,9095.2C3885.28,9095.2 3887.61,9092.6 3887.61,9092.6C3887.98,9092.34 3888.45,9092.59 3888.82,9092.76C3890.04,9093.36 3891.21,9094.05 3892.32,9094.83C3892.32,9094.83 3892.81,9095.08 3892.67,9095.63L3891.6,9098.85C3892.49,9099.6 3893.32,9100.42 3894.08,9101.3L3894.27,9101.52L3897.49,9100.45C3897.56,9100.43 3897.64,9100.39 3897.89,9100.45ZM3862.16,9127.4C3862.35,9127.49 3862.38,9127.54 3862.43,9127.59C3863.32,9128.69 3864.32,9129.7 3865.42,9130.6C3865.42,9130.6 3865.86,9130.86 3865.73,9131.39L3864.67,9134.57C3865.6,9135.21 3866.58,9135.78 3867.59,9136.28C3867.59,9136.28 3867.81,9136.39 3867.81,9136.39L3870.04,9133.88C3870.37,9133.56 3870.88,9133.76 3871.26,9133.9C3872.38,9134.29 3873.53,9134.59 3874.7,9134.79C3874.7,9134.79 3875.31,9134.7 3875.51,9135.34L3876.18,9138.63C3877.31,9138.71 3878.43,9138.72 3879.56,9138.65L3879.8,9138.63L3880.48,9135.34C3880.61,9134.9 3881.14,9134.82 3881.55,9134.75C3882.81,9134.52 3884.04,9134.16 3885.24,9133.7C3885.24,9133.7 3885.59,9133.54 3885.94,9133.88L3888.17,9136.39C3889.19,9135.9 3890.17,9135.34 3891.11,9134.71C3891.11,9134.71 3891.31,9134.57 3891.31,9134.57L3890.25,9131.39C3890.14,9130.94 3890.57,9130.61 3890.88,9130.34C3891.79,9129.57 3892.62,9128.72 3893.38,9127.81C3893.38,9127.81 3893.6,9127.23 3894.25,9127.39L3897.44,9128.45C3898.07,9127.52 3898.64,9126.54 3899.14,9125.53L3899.25,9125.31L3896.74,9123.08C3896.24,9122.55 3896.61,9122.27 3896.76,9121.86C3897.17,9120.69 3897.48,9119.5 3897.68,9118.28C3897.68,9118.28 3897.68,9117.77 3898.2,9117.61L3901.49,9116.94C3901.57,9115.82 3901.58,9114.69 3901.51,9113.56L3901.49,9113.32L3898.2,9112.64C3897.76,9112.51 3897.68,9111.98 3897.61,9111.57C3897.38,9110.31 3897.03,9109.08 3896.57,9107.89C3896.57,9107.89 3896.5,9107.43 3896.74,9107.18L3899.25,9104.95C3898.76,9103.93 3898.2,9102.95 3897.57,9102.01L3897.44,9101.81L3894.25,9102.87C3893.47,9103.06 3893.05,9102.02 3892.38,9101.32C3891.47,9100.38 3890.38,9099.49 3890.38,9099.49C3890.13,9099.16 3890.2,9099.08 3890.25,9098.87L3891.31,9095.68C3890.38,9095.05 3889.4,9094.48 3888.39,9093.98L3888.17,9093.87L3885.94,9096.38C3885.42,9096.88 3885.14,9096.51 3884.72,9096.36C3883.56,9095.95 3882.36,9095.64 3881.14,9095.44C3881.14,9095.44 3880.6,9095.34 3880.48,9094.92L3879.8,9091.63C3878.6,9091.54 3877.39,9091.54 3876.18,9091.63L3875.51,9094.92C3875.37,9095.36 3874.84,9095.44 3874.43,9095.51C3873.22,9095.73 3872.03,9096.07 3870.88,9096.5C3870.88,9096.5 3870.44,9096.76 3870.04,9096.38L3867.81,9093.87C3866.79,9094.36 3865.81,9094.92 3864.87,9095.55L3864.67,9095.68L3865.73,9098.87C3865.84,9099.32 3865.42,9099.65 3865.1,9099.92C3864.13,9100.75 3863.23,9101.67 3862.43,9102.66C3862.43,9102.66 3862.2,9102.98 3861.73,9102.87L3858.55,9101.81C3857.91,9102.74 3857.34,9103.72 3856.84,9104.73L3856.74,9104.95L3859.24,9107.18C3859.81,9107.77 3859.09,9108.7 3858.81,9109.7C3858.53,9110.69 3858.28,9112.11 3858.28,9112.11C3858.18,9112.53 3858.03,9112.57 3857.78,9112.64L3854.49,9113.32C3854.41,9114.44 3854.4,9115.57 3854.47,9116.7C3854.47,9116.7 3854.49,9116.94 3854.49,9116.94L3857.78,9117.61C3858.19,9117.74 3858.29,9118.21 3858.35,9118.55C3858.57,9119.81 3858.91,9121.05 3859.37,9122.24C3859.37,9122.24 3859.62,9122.68 3859.24,9123.08L3856.74,9125.31C3857.22,9126.33 3857.79,9127.31 3858.41,9128.25L3858.55,9128.45L3861.73,9127.39C3861.81,9127.37 3861.9,9127.32 3862.16,9127.4ZM3878.14,9103.44C3883.6,9103.53 3888.63,9107.81 3889.53,9113.2C3890.38,9118.33 3887.35,9123.87 3882.54,9125.9C3877.18,9128.17 3870.28,9125.71 3867.58,9120.45C3864.77,9114.97 3867.16,9107.38 3872.92,9104.59C3874.54,9103.81 3876.35,9103.42 3878.14,9103.44ZM3877.86,9104.72C3873.11,9104.8 3868.67,9108.44 3867.76,9113.16C3866.87,9117.8 3869.58,9122.88 3873.94,9124.72C3878.71,9126.74 3884.87,9124.56 3887.26,9119.87C3889.77,9114.96 3887.66,9108.23 3882.5,9105.74C3881.06,9105.05 3879.46,9104.7 3877.86,9104.72Z" style="fill:white;"/>
                </g>
            </g>
        </g>
    </g>
</svg>
