<svg xmlns="http://www.w3.org/2000/svg" xmlns:xlink="http://www.w3.org/1999/xlink" width="1642" height="1077" viewBox="0 0 1642 1077"><defs><filter id="a" x="-12" y="-11" width="1666" height="79.999" filterUnits="userSpaceOnUse"><feOffset dy="1" input="SourceAlpha"/><feGaussianBlur stdDeviation="4" result="b"/><feFlood flood-opacity="0.325"/><feComposite operator="in" in2="b"/><feComposite in="SourceGraphic"/></filter><filter id="c" x="274.5" y="131.409" width="890.424" height="455.7" filterUnits="userSpaceOnUse"><feOffset dy="1" input="SourceAlpha"/><feGaussianBlur stdDeviation="1.5" result="d"/><feFlood flood-opacity="0.2"/><feComposite operator="in" in2="d"/><feComposite in="SourceGraphic"/></filter><filter id="e" x="720.5" y="666.409" width="890.424" height="380.956" filterUnits="userSpaceOnUse"><feOffset dy="1" input="SourceAlpha"/><feGaussianBlur stdDeviation="1.5" result="f"/><feFlood flood-opacity="0.2"/><feComposite operator="in" in2="f"/><feComposite in="SourceGraphic"/></filter><filter id="g" x="275.148" y="666.409" width="423.594" height="380.956" filterUnits="userSpaceOnUse"><feOffset dy="1" input="SourceAlpha"/><feGaussianBlur stdDeviation="1.5" result="h"/><feFlood flood-opacity="0.2"/><feComposite operator="in" in2="h"/><feComposite in="SourceGraphic"/></filter><filter id="i" x="1185.5" y="131.5" width="426" height="457" filterUnits="userSpaceOnUse"><feOffset dy="1" input="SourceAlpha"/><feGaussianBlur stdDeviation="1.5" result="j"/><feFlood flood-opacity="0.2"/><feComposite operator="in" in2="j"/><feComposite in="SourceGraphic"/></filter><clipPath id="l"><rect width="1642" height="1077"/></clipPath></defs><g id="k" clip-path="url(#l)"><rect width="1642" height="1077" fill="#fff"/><g transform="translate(0 43.5)"><rect width="236" height="1022" transform="translate(0 11.5)" fill="#fafafa"/><line y1="1033.5" transform="translate(236.497)" fill="none" stroke="#dcdcdc" stroke-width="1"/></g><g transform="matrix(1, 0, 0, 1, 0, 0)" filter="url(#a)"><path d="M75-1383H1717v-56H75Z" transform="translate(-75 1439)" fill="#5a6676"/></g><g transform="translate(1590.117 9.857)" opacity="0.6"><rect width="35.775" height="35.775" fill="none"/><path d="M66.658-38C57.463-38,50-30.8,50-21.938S57.463-5.875,66.658-5.875s16.658-7.2,16.658-16.062S75.853-38,66.658-38Zm0,4.819a4.9,4.9,0,0,1,5,4.819,4.9,4.9,0,0,1-5,4.819,4.9,4.9,0,0,1-5-4.819A4.9,4.9,0,0,1,66.658-33.181Zm0,22.809a12.115,12.115,0,0,1-9.995-5.172c.05-3.2,6.663-4.947,9.995-4.947,3.315,0,9.945,1.751,9.995,4.947A12.115,12.115,0,0,1,66.658-10.373Z" transform="translate(-47.764 40.236)" fill="#fff"/></g><g transform="translate(13 -56)"><text transform="translate(55 93)" fill="#fff" font-size="24" font-family="Roboto-Regular, Roboto"><tspan x="0" y="0">0xcert</tspan><tspan y="0" font-family="Roboto-Bold, Roboto" font-weight="700">API</tspan><tspan y="0" xml:space="preserve"> Dashboard </tspan><tspan y="0" xml:space="preserve" font-size="21">  </tspan><tspan y="0" font-size="16">(Testnet)</tspan></text></g><rect width="236" height="40" transform="translate(0 75)" fill="#ecf1fa"/><path d="M3,10.778H9.222V3H3ZM3,17H9.222V12.333H3Zm7.778,0H17V9.222H10.778Zm0-14V7.667H17V3Z" transform="translate(21 84)" fill="#5a6676"/><text transform="translate(59 99)" fill="#5a6676" font-size="14" font-family="Roboto-Regular, Roboto"><tspan x="0" y="0">Dashboard</tspan></text><text transform="translate(59 143)" fill="#757575" font-size="14" font-family="Roboto-Regular, Roboto"><tspan x="0" y="0">Requests</tspan></text><text transform="translate(59 229)" fill="#757575" font-size="14" font-family="Roboto-Regular, Roboto"><tspan x="0" y="0">Webhooks</tspan></text><text transform="translate(59 186)" fill="#757575" font-size="14" font-family="Roboto-Regular, Roboto"><tspan x="0" y="0">Ledgers</tspan></text><path d="M8.414,8.545a3.818,3.818,0,1,0,0,2.545h2.768v2.545h2.545V11.091H15V8.545Zm-3.6,2.545A1.273,1.273,0,1,1,6.091,9.818,1.276,1.276,0,0,1,4.818,11.091Z" transform="translate(23 128)" fill="#757575"/><path d="M8.414,8.545a3.818,3.818,0,1,0,0,2.545h2.768v2.545h2.545V11.091H15V8.545Zm-3.6,2.545A1.273,1.273,0,1,1,6.091,9.818,1.276,1.276,0,0,1,4.818,11.091Z" transform="translate(23 214)" fill="#757575"/><path d="M10.545,8.818A1.909,1.909,0,1,0,8.636,6.909,1.9,1.9,0,0,0,10.545,8.818Zm-5.091,0A1.909,1.909,0,1,0,3.545,6.909,1.9,1.9,0,0,0,5.455,8.818Zm0,1.273C3.972,10.091,1,10.835,1,12.318v1.591H9.909V12.318C9.909,10.835,6.937,10.091,5.455,10.091Zm5.091,0c-.185,0-.395.013-.617.032a2.685,2.685,0,0,1,1.254,2.2v1.591H15V12.318C15,10.835,12.028,10.091,10.545,10.091Z" transform="translate(23 171)" fill="#757575"/><text transform="translate(723 644)" fill="rgba(0,0,0,0.87)" font-size="26" font-family="Roboto-Light, Roboto" font-weight="300" letter-spacing="-0.009em"><tspan x="0" y="0">Your ledgers</tspan></text><text transform="translate(279 112)" fill="rgba(0,0,0,0.87)" font-size="26" font-family="Roboto-Light, Roboto" font-weight="300" letter-spacing="-0.009em"><tspan x="0" y="0">Recent API activity</tspan></text><text transform="translate(279 642)" fill="rgba(0,0,0,0.87)" font-size="26" font-family="Roboto-Light, Roboto" font-weight="300" letter-spacing="-0.009em"><tspan x="0" y="0">Documentation</tspan></text><text transform="translate(1192 112)" fill="rgba(0,0,0,0.87)" font-size="26" font-family="Roboto-Light, Roboto" font-weight="300" letter-spacing="-0.009em"><tspan x="0" y="0">Your account balance</tspan></text><g transform="matrix(1, 0, 0, 1, 0, 0)" filter="url(#c)"><path d="M5.263,0h870.9c2.907,0,5.263,3.148,5.263,7.032V439.669c0,3.883-2.356,7.032-5.263,7.032H5.263C2.356,446.7,0,443.552,0,439.669V7.032C0,3.148,2.356,0,5.263,0Z" transform="translate(279 134.91)" fill="#fff"/></g><text transform="translate(1011 566)" fill="#5a6676" stroke="rgba(0,0,0,0)" stroke-width="1" font-size="12" font-family="Roboto-Regular, Roboto"><tspan x="0" y="0">SEE ALL REQUESTS</tspan></text><rect width="153" height="104" transform="translate(279 137)" fill="#fafafa"/><text transform="translate(460 177)" fill="#909090" stroke="rgba(0,0,0,0)" stroke-width="1" font-size="16" font-family="Roboto-Regular, Roboto"><tspan x="0" y="0">All mutations</tspan></text><text transform="translate(602 177)" fill="#909090" stroke="rgba(0,0,0,0)" stroke-width="1" font-size="16" font-family="Roboto-Regular, Roboto"><tspan x="0" y="0">All queries</tspan></text><text transform="translate(460 210)" fill="#4b4b4b" font-size="26" font-family="Roboto-Light, Roboto" font-weight="300"><tspan x="0" y="0">50</tspan></text><text transform="translate(602 210)" fill="#4b4b4b" font-size="26" font-family="Roboto-Light, Roboto" font-weight="300"><tspan x="0" y="0">134</tspan></text><text transform="translate(312 177)" fill="#0d0d0d" stroke="rgba(0,0,0,0)" stroke-width="1" font-size="16" font-family="Roboto-Regular, Roboto"><tspan x="0" y="0">All requests</tspan></text><text transform="translate(312 210)" fill="#242424" font-size="26" font-family="Roboto-Regular, Roboto"><tspan x="0" y="0">930</tspan></text><rect width="153" height="4" transform="translate(279 135)" fill="#5a6676"/><line x2="881" transform="translate(279.5 541.359)" fill="none" stroke="#eee" stroke-width="1"/><g transform="translate(-15 -67)"><text transform="translate(1128 530)" fill="#8e8e8e" font-size="12" font-family="Roboto-Regular, Roboto"><tspan x="0" y="0">0</tspan></text><text transform="translate(1135 460)" fill="#8e8e8e" font-size="12" font-family="Roboto-Regular, Roboto"><tspan x="-13.477" y="0">50</tspan></text><text transform="translate(336 562)" fill="#8e8e8e" font-size="12" font-family="Roboto-Regular, Roboto"><tspan x="-6.738" y="0">15</tspan><tspan x="-10.102" y="12">oct.</tspan></text><text transform="translate(400 562)" fill="#8e8e8e" font-size="12" font-family="Roboto-Regular, Roboto"><tspan x="-6.738" y="0">16</tspan></text><text transform="translate(463 562)" fill="#8e8e8e" font-size="12" font-family="Roboto-Regular, Roboto"><tspan x="-6.738" y="0">17</tspan></text><text transform="translate(527 562)" fill="#8e8e8e" font-size="12" font-family="Roboto-Regular, Roboto"><tspan x="-6.738" y="0">18</tspan></text><text transform="translate(591 562)" fill="#8e8e8e" font-size="12" font-family="Roboto-Regular, Roboto"><tspan x="-6.738" y="0">19</tspan></text><text transform="translate(654 562)" fill="#8e8e8e" font-size="12" font-family="Roboto-Regular, Roboto"><tspan x="-6.738" y="0">20</tspan></text><text transform="translate(718 562)" fill="#8e8e8e" font-size="12" font-family="Roboto-Regular, Roboto"><tspan x="-6.738" y="0">21</tspan></text><text transform="translate(782 562)" fill="#8e8e8e" font-size="12" font-family="Roboto-Regular, Roboto"><tspan x="-6.738" y="0">22</tspan></text><text transform="translate(845 562)" fill="#8e8e8e" font-size="12" font-family="Roboto-Regular, Roboto"><tspan x="-6.738" y="0">23</tspan></text><text transform="translate(909 562)" fill="#8e8e8e" font-size="12" font-family="Roboto-Regular, Roboto"><tspan x="-6.738" y="0">24</tspan></text><text transform="translate(973 562)" fill="#8e8e8e" font-size="12" font-family="Roboto-Regular, Roboto"><tspan x="-6.738" y="0">25</tspan></text><text transform="translate(1036 562)" fill="#8e8e8e" font-size="12" font-family="Roboto-Regular, Roboto"><tspan x="-6.738" y="0">26</tspan></text><text transform="translate(1100 562)" fill="#8e8e8e" font-size="12" font-family="Roboto-Regular, Roboto"><tspan x="-6.738" y="0">27</tspan></text><text transform="translate(1135 360)" fill="#8e8e8e" font-size="12" font-family="Roboto-Regular, Roboto"><tspan x="-20.215" y="0">150</tspan></text><line x2="808.451" transform="translate(327.5 346.5)" fill="none" stroke="#eee" stroke-width="1"/><line x2="808.451" transform="translate(327.5 443.5)" fill="none" stroke="#eee" stroke-width="1"/><line x2="808.451" transform="translate(326.5 492.5)" fill="none" stroke="#eee" stroke-width="1"/><line x2="808.451" transform="translate(326.5 395.5)" fill="none" stroke="#eee" stroke-width="1"/><line x2="808.451" transform="translate(327.5 539.5)" fill="none" stroke="#eee" stroke-width="1"/><path d="M10869.089,9273.738l-71.271-33.766-65.288,8.977-56.862-34.03-68.408,25.054-71.891-63.324-115.541,77.226-59.989-13.9-71.057,64.395-58.732-64.395-142.9,58.938V9368.6h781.938Z" transform="translate(-9761.001 -8829)" fill="rgba(14,109,255,0.05)"/><path d="M10088.108,9300.792l141.941-60.819,57.169,66.8,72.62-66.8,56.744,14.742,118.646-78.03,72.511,63.288,68.769-23.732,56.021,32.709,63.482-8.977,73.076,33.766" transform="translate(-9761.001 -8830)" fill="none" stroke="#0c70fe" stroke-width="3"/></g><path d="M10,6,8.59,7.41,13.17,12,8.59,16.59,10,18l6-6Z" transform="translate(1127.41 549.057)" fill="#5a6676"/><g transform="matrix(1, 0, 0, 1, 0, 0)" filter="url(#e)"><path d="M5.263,0h870.9c2.907,0,5.263,2.621,5.263,5.855V366.1c0,3.234-2.356,5.855-5.263,5.855H5.263C2.356,371.956,0,369.335,0,366.1V5.855C0,2.621,2.356,0,5.263,0Z" transform="translate(725 669.91)" fill="#fff"/></g><text transform="translate(1565 1026)" fill="#617185" stroke="rgba(0,0,0,0)" stroke-width="1" font-size="12" font-family="Roboto-Regular, Roboto"><tspan x="-103.301" y="0">MANAGE LEDGERS</tspan></text><line x2="881" transform="translate(725.5 1001.615)" fill="none" stroke="#eee" stroke-width="1"/><path d="M10,6,8.59,7.41,13.17,12,8.59,16.59,10,18l6-6Z" transform="translate(1573.41 1009.313)" fill="#5a6676"/><text transform="translate(748 704)" fill="#909090" stroke="rgba(0,0,0,0)" stroke-width="1" font-size="16" font-family="Roboto-Medium, Roboto" font-weight="500"><tspan x="0" y="0">Ledger name</tspan></text><text transform="translate(961 704)" fill="#909090" stroke="rgba(0,0,0,0)" stroke-width="1" font-size="16" font-family="Roboto-Medium, Roboto" font-weight="500"><tspan x="0" y="0">ID / Address</tspan></text><text transform="translate(1434 704)" fill="#909090" stroke="rgba(0,0,0,0)" stroke-width="1" font-size="16" font-family="Roboto-Medium, Roboto" font-weight="500"><tspan x="0" y="0">Created at</tspan></text><g transform="translate(0 1)"><text transform="translate(748 746)" fill="#0d0d0d" stroke="rgba(0,0,0,0)" stroke-width="1" font-size="16" font-family="Roboto-Medium, Roboto" font-weight="500"><tspan x="0" y="0">My first ledger</tspan></text><text transform="translate(961 746)" fill="#717171" stroke="rgba(0,0,0,0)" stroke-width="1" font-size="16" font-family="Roboto-Regular, Roboto"><tspan x="0" y="0">0xA079A8fBF5a90b73Da7a005A2F1Ea5A12eF3fC29</tspan></text><text transform="translate(1434 746)" fill="#717171" stroke="rgba(0,0,0,0)" stroke-width="1" font-size="16" font-family="Roboto-Regular, Roboto"><tspan x="0" y="0">2020-1-20 at 15:32</tspan></text></g><g transform="translate(0 4)"><text transform="translate(748 787)" fill="#0d0d0d" stroke="rgba(0,0,0,0)" stroke-width="1" font-size="16" font-family="Roboto-Medium, Roboto" font-weight="500"><tspan x="0" y="0">My second ledger</tspan></text><text transform="translate(961 787)" fill="#717171" stroke="rgba(0,0,0,0)" stroke-width="1" font-size="16" font-family="Roboto-Regular, Roboto"><tspan x="0" y="0">0xb6Eea9e1b01cB037897a1F46d62F8dCaD9933766</tspan></text><text transform="translate(1434 787)" fill="#717171" stroke="rgba(0,0,0,0)" stroke-width="1" font-size="16" font-family="Roboto-Regular, Roboto"><tspan x="0" y="0">2020-1-19 at 12:12</tspan></text></g><g transform="translate(0 7)"><text transform="translate(748 828)" fill="#0d0d0d" stroke="rgba(0,0,0,0)" stroke-width="1" font-size="16" font-family="Roboto-Medium, Roboto" font-weight="500"><tspan x="0" y="0">Private ledger</tspan></text><text transform="translate(961 828)" fill="#717171" stroke="rgba(0,0,0,0)" stroke-width="1" font-size="16" font-family="Roboto-Regular, Roboto"><tspan x="0" y="0">0x3239292309b619488af1157C65a4206FcD0D1ECd</tspan></text><text transform="translate(1434 828)" fill="#717171" stroke="rgba(0,0,0,0)" stroke-width="1" font-size="16" font-family="Roboto-Regular, Roboto"><tspan x="0" y="0">2020-1-10 at 11:14</tspan></text></g><g transform="translate(0 9)"><text transform="translate(748 870)" fill="#0d0d0d" stroke="rgba(0,0,0,0)" stroke-width="1" font-size="16" font-family="Roboto-Medium, Roboto" font-weight="500"><tspan x="0" y="0">Business ledger</tspan></text><text transform="translate(961 870)" fill="#717171" stroke="rgba(0,0,0,0)" stroke-width="1" font-size="16" font-family="Roboto-Regular, Roboto"><tspan x="0" y="0">0xC677E796dA75EF20FB0d65c5213A71762dd59e5B</tspan></text><text transform="translate(1434 870)" fill="#717171" stroke="rgba(0,0,0,0)" stroke-width="1" font-size="16" font-family="Roboto-Regular, Roboto"><tspan x="0" y="0">2020-1-04 at 09:32</tspan></text></g><g transform="translate(0 53)"><text transform="translate(748 870)" fill="#0d0d0d" stroke="rgba(0,0,0,0)" stroke-width="1" font-size="16" font-family="Roboto-Medium, Roboto" font-weight="500"><tspan x="0" y="0">Product ledger</tspan></text><text transform="translate(961 870)" fill="#717171" stroke="rgba(0,0,0,0)" stroke-width="1" font-size="16" font-family="Roboto-Regular, Roboto"><tspan x="0" y="0">0xb6Eea9e1b01cB037897a1F46d62F8dCaD9933766</tspan></text><text transform="translate(1434 870)" fill="#717171" stroke="rgba(0,0,0,0)" stroke-width="1" font-size="16" font-family="Roboto-Regular, Roboto"><tspan x="0" y="0">2020-1-02 at 12:32</tspan></text></g><line x2="881.424" transform="translate(725 719.5)" fill="none" stroke="#eee" stroke-width="1"/><line x2="881.424" transform="translate(725 763.5)" fill="none" stroke="#eee" stroke-width="1"/><line x2="881.424" transform="translate(725 807.5)" fill="none" stroke="#eee" stroke-width="1"/><line x2="881.424" transform="translate(725 852.5)" fill="none" stroke="#eee" stroke-width="1"/><line x2="881.424" transform="translate(725 896.5)" fill="none" stroke="#eee" stroke-width="1"/><g transform="translate(39 1043.335)"><g transform="translate(51.123 -30.774)"><text transform="translate(0 -0.017)" fill="rgba(0,0,0,0.33)" font-size="12" font-family="Overpass-Regular, Overpass"><tspan x="0" y="0">P</tspan></text><text transform="translate(6.823 -0.017)" fill="rgba(0,0,0,0.33)" font-size="12" font-family="Overpass-Regular, Overpass"><tspan x="0" y="0">o</tspan></text><text transform="translate(13.134 -0.017)" fill="rgba(0,0,0,0.33)" font-size="12" font-family="Overpass-Regular, Overpass"><tspan x="0" y="0">w</tspan></text><text transform="translate(21.236 -0.017)" fill="rgba(0,0,0,0.33)" font-size="12" font-family="Overpass-Regular, Overpass"><tspan x="0" y="0">e</tspan></text><text transform="translate(27.303 -0.017)" fill="rgba(0,0,0,0.33)" font-size="12" font-family="Overpass-Regular, Overpass"><tspan x="0" y="0">r</tspan></text><text transform="translate(31.555 -0.017)" fill="rgba(0,0,0,0.33)" font-size="12" font-family="Overpass-Regular, Overpass"><tspan x="0" y="0">e</tspan></text><text transform="translate(37.622 -0.017)" fill="rgba(0,0,0,0.33)" font-size="12" font-family="Overpass-Regular, Overpass"><tspan x="0" y="0">d</tspan></text><text transform="translate(46.358 -0.017)" fill="rgba(0,0,0,0.33)" font-size="12" font-family="Overpass-Regular, Overpass"><tspan x="0" y="0">b</tspan></text><text transform="translate(52.717 -0.017)" fill="rgba(0,0,0,0.33)" font-size="12" font-family="Overpass-Regular, Overpass"><tspan x="0" y="0">y</tspan></text></g><path d="M116.021-30.606c2.43,0,3.068-2.476,3.068-4.459,0-2.131-.7-4.459-3.068-4.459-2.429,0-3.067,2.476-3.067,4.459C112.954-32.934,113.653-30.606,116.021-30.606Zm0-1.232c-1.374,0-1.742-1.626-1.742-3.227,0-1.5.331-3.227,1.742-3.227,1.375,0,1.743,1.626,1.743,3.227C117.764-33.562,117.432-31.838,116.021-31.838Z" fill="rgba(0,0,0,0.33)"/><path d="M119.813-30.754h1.46l1.043-1.626a4.83,4.83,0,0,0,.319-.567c.086.16.184.357.319.567L124-30.754h1.46l-2.1-3.276,1.926-3.018h-1.46l-.871,1.367c-.135.209-.233.406-.319.567a6.107,6.107,0,0,0-.319-.567l-.871-1.367h-1.46L121.9-34.03Z" fill="rgba(0,0,0,0.33)"/><path d="M128.623-30.606a2.274,2.274,0,0,0,2.392-1.774l-1.214-.382a1.179,1.179,0,0,1-1.178.924c-.908,0-1.436-.776-1.436-2.057s.528-2.069,1.485-2.069a1.16,1.16,0,0,1,1.1.813l1.215-.419a2.266,2.266,0,0,0-2.368-1.626c-1.681,0-2.737,1.232-2.737,3.3S126.942-30.606,128.623-30.606Z" fill="rgba(0,0,0,0.33)"/><path d="M134.475-30.606a2.688,2.688,0,0,0,2.148-.912l-.835-.862a1.6,1.6,0,0,1-1.3.641,1.628,1.628,0,0,1-1.583-1.687h4.221a5.715,5.715,0,0,0,.049-.825,2.618,2.618,0,0,0-2.7-2.944c-1.717,0-2.846,1.219-2.846,3.289S132.733-30.606,134.475-30.606Zm-1.57-3.855a1.489,1.489,0,0,1,1.57-1.6,1.429,1.429,0,0,1,1.424,1.6Z" fill="rgba(0,0,0,0.33)"/><path d="M138.034-30.754h1.276v-3.535c0-1.293.711-1.651,1.276-1.651a1.672,1.672,0,0,1,.994.308l.184-1.182a1.562,1.562,0,0,0-1.055-.382,1.428,1.428,0,0,0-1.4.911v-.764h-1.276Z" fill="rgba(0,0,0,0.33)"/><path d="M144.85-30.606a2.778,2.778,0,0,0,1.264-.283l.16-1.195a1.762,1.762,0,0,1-.933.3c-.491,0-.613-.3-.613-.714v-3.436h1.484v-1.108h-1.484v-2.6l-1.276.616v1.983h-.97v1.108h.97v3.769C143.452-31.222,143.857-30.606,144.85-30.606Z" fill="rgba(0,0,0,0.33)"/><path d="M52.353-11.785h3.016v-5.757h4.187V-20.41H55.369v-2.45h6.667v-2.868H52.353Z" fill="rgba(0,0,0,0.33)"/><path d="M64.179-21.964v.916A2.24,2.24,0,0,1,66.1-22.2a2.628,2.628,0,0,1,1.636.528v2.892l-.009.066a2.629,2.629,0,0,0-1.806-.7c-.913,0-1.746.478-1.746,2.111v5.517H61.3V-21.964Z" fill="rgba(0,0,0,0.33)"/><path d="M90.57-11.785h2.877V-18.08c0-3.247-1.647-4.123-3.869-4.123A3.746,3.746,0,0,0,86.4-20.789a2.5,2.5,0,0,0-2.54-1.414,2.761,2.761,0,0,0-2.322,1.175v-.936H78.665v10.178h2.877v-5.338c0-1.673.377-2.291,1.627-2.291,1.091,0,1.449.6,1.449,2.37v5.258h2.877v-5.338c0-1.673.357-2.291,1.627-2.291,1.091,0,1.448.6,1.448,2.37Z" fill="rgba(0,0,0,0.33)"/><path d="M99.658-11.546a4.868,4.868,0,0,0,3.949-1.852l-1.667-1.673A2.668,2.668,0,0,1,99.658-14a1.82,1.82,0,0,1-2-1.892h6.489a10.388,10.388,0,0,0,.079-1.494c0-3.267-2-4.82-4.564-4.82-2.957,0-4.822,2.052-4.822,5.318C94.837-13.538,96.662-11.546,99.658-11.546ZM97.674-18.06a1.788,1.788,0,0,1,1.865-1.693,1.739,1.739,0,0,1,1.925,1.693Z" fill="rgba(0,0,0,0.33)"/><path d="M107.675-11.785h2.54l1.071-4.621c.06-.279.3-1.1.377-1.653.06.558.3,1.394.337,1.653l1.072,4.621h2.54l2.936-10.178h-2.837L114.6-17.781c-.1.339-.179,1.076-.278,1.494-.119-.418-.238-1.135-.337-1.494l-1.052-4.183h-2.58l-1.071,4.183c-.1.358-.238,1.076-.337,1.494-.119-.418-.2-1.155-.3-1.494L107.6-21.964h-2.837Z" fill="rgba(0,0,0,0.33)"/><path d="M123.886-11.546c2.857,0,4.663-1.972,4.663-5.318,0-3.287-1.806-5.338-4.663-5.338-2.877,0-4.7,2.052-4.7,5.338C119.183-13.518,121.009-11.546,123.886-11.546Zm0-2.789c-1.111,0-1.825-.936-1.825-2.53s.714-2.55,1.825-2.55c1.131,0,1.786.956,1.786,2.55S125.017-14.335,123.886-14.335Z" fill="rgba(0,0,0,0.33)"/><path d="M130.037-11.785h2.877V-17.3c0-1.633.834-2.111,1.747-2.111a2.628,2.628,0,0,1,1.805.7l.377-2.629a2.647,2.647,0,0,0-2-.857,2.241,2.241,0,0,0-1.925,1.155v-.916h-2.877Z" fill="rgba(0,0,0,0.33)"/><path d="M146.943-11.785l-3.691-7.171,3.1-3.008h-3.413l-2.56,2.55v-6.752L137.5-24.812v13.027h2.877v-4.422l.754-.7,2.679,5.119Z" fill="rgba(0,0,0,0.33)"/><path d="M116.007-36.292c.382,0,.693.561.693,1.253s-.311,1.253-.693,1.253-.694-.561-.694-1.253S115.624-36.292,116.007-36.292Z" fill="rgba(0,0,0,0.33)" fill-rule="evenodd"/><path d="M76.8-11.852H73.944v-.757a3.146,3.146,0,0,1-2.52,1c-2.143,0-3.81-1.115-3.81-3.346s2.1-3.267,4.107-3.267a5.228,5.228,0,0,1,2.222.359v-.558c0-.956-.655-1.434-1.647-1.434A5.71,5.71,0,0,0,69.061-18.8v-2.719a8.007,8.007,0,0,1,3.434-.754c1.885,0,4.306.478,4.306,3.984Zm-4.822-2.191c-.992,0-1.548-.339-1.548-.9,0-.737.794-.976,1.786-.976a5.933,5.933,0,0,1,1.726.239v.916A3.037,3.037,0,0,1,71.979-14.043Z" fill="rgba(0,0,0,0.33)" fill-rule="evenodd"/><path d="M40.641-40.365A1.269,1.269,0,0,1,41.9-39.09V-12.1a1.269,1.269,0,0,1-1.262,1.275H38.566l-5.66-5.716a.523.523,0,0,0-.372-.156.524.524,0,0,0-.372.156L29.5-13.851a.534.534,0,0,0-.154.376.534.534,0,0,0,.154.376l2.25,2.272H23.354l11.186-11.3h.012l3.035-3.065a.535.535,0,0,0,0-.751l-5.053-5.1a.522.522,0,0,0-.744,0l-2.666,2.693a.535.535,0,0,0,0,.751l1.637,1.653a.535.535,0,0,1,0,.751L16.534-10.828H14.129A1.269,1.269,0,0,1,12.866-12.1V-39.09a1.269,1.269,0,0,1,1.262-1.275h2.355l5.35,5.4a.523.523,0,0,0,.744,0l2.666-2.693a.535.535,0,0,0,0-.751L23.3-40.365h7.748L17.147-26.323a.535.535,0,0,0,0,.751l5.208,5.259a.522.522,0,0,0,.744,0L25.764-23a.535.535,0,0,0,0-.751l-1.8-1.815a.535.535,0,0,1,0-.751L37.872-40.365Z" fill="rgba(0,0,0,0.33)" fill-rule="evenodd"/><path d="M154.277-51.163a5.993,5.993,0,0,1,5.648,5.67c.168,13.214,0,26.431,0,39.646a5.993,5.993,0,0,1-5.65,5.816C153.21.01,8.845.01,5.869-.029A6,6,0,0,1,.075-5.7c-.168-13.214,0-26.431,0-39.646a5.994,5.994,0,0,1,5.65-5.816C5.973-51.172,154.2-51.166,154.277-51.163ZM5.876-50.109a4.92,4.92,0,0,0-4.75,4.643Q.874-25.6,1.127-5.727A4.923,4.923,0,0,0,5.75-1.086c1.319.05,119.929.366,148.5,0a4.928,4.928,0,0,0,4.623-4.641q.254-19.868,0-39.739a4.923,4.923,0,0,0-4.623-4.641C153.276-50.145,8.206-50.139,5.876-50.109Z" fill="rgba(0,0,0,0.33)"/></g><g transform="matrix(1, 0, 0, 1, 0, 0)" filter="url(#g)"><path d="M2.476,0H412.118c1.367,0,2.475,2.621,2.475,5.855V366.1c0,3.234-1.108,5.855-2.475,5.855H2.476C1.108,371.956,0,369.335,0,366.1V5.855C0,2.621,1.108,0,2.476,0Z" transform="translate(279.65 669.91)" fill="#fff"/></g><line x2="415" transform="translate(279.5 1001.615)" fill="none" stroke="#eee" stroke-width="1"/><text transform="translate(655 1026)" fill="#617185" stroke="rgba(0,0,0,0)" stroke-width="1" font-size="12" font-family="Roboto-Regular, Roboto"><tspan x="-135.938" y="0">GO TO DOCUMENTATION</tspan></text><path d="M10,6,8.59,7.41,13.17,12,8.59,16.59,10,18l6-6Z" transform="translate(663.41 1009.313)" fill="#5a6676"/><text transform="translate(497 709)" fill="#5a6676" stroke="rgba(0,0,0,0)" stroke-width="1" font-size="16" font-family="Roboto-Regular, Roboto"><tspan x="-137.203" y="0">GETTING STARTED</tspan></text><text transform="translate(359 789)" fill="#5a6676" stroke="rgba(0,0,0,0)" stroke-width="1" font-size="16" font-family="Roboto-Regular, Roboto"><tspan x="0" y="0">CREATING LEDGERS</tspan></text><text transform="translate(359 869)" fill="#5a6676" stroke="rgba(0,0,0,0)" stroke-width="1" font-size="16" font-family="Roboto-Regular, Roboto"><tspan x="0" y="0">MINTING ASSETS</tspan></text><text transform="translate(359 949)" fill="#5a6676" stroke="rgba(0,0,0,0)" stroke-width="1" font-size="16" font-family="Roboto-Regular, Roboto"><tspan x="0" y="0">PRICE LIST</tspan></text><text transform="translate(359 731)" fill="#909090" stroke="rgba(0,0,0,0)" stroke-width="1" font-size="14" font-family="Roboto-Regular, Roboto"><tspan x="0" y="0">Learn how to make your first API call</tspan></text><text transform="translate(359 811)" fill="#909090" stroke="rgba(0,0,0,0)" stroke-width="1" font-size="14" font-family="Roboto-Regular, Roboto"><tspan x="0" y="0">Learn how to make your first Ledger</tspan></text><text transform="translate(359 891)" fill="#909090" stroke="rgba(0,0,0,0)" stroke-width="1" font-size="14" font-family="Roboto-Regular, Roboto"><tspan x="0" y="0">Learn how to mint your first asset</tspan></text><text transform="translate(359 971)" fill="#909090" stroke="rgba(0,0,0,0)" stroke-width="1" font-size="14" font-family="Roboto-Regular, Roboto"><tspan x="0" y="0">Learn how to deposit funds</tspan></text><line x2="415.242" transform="translate(279 754.5)" fill="none" stroke="#eee" stroke-width="1"/><line x2="415.242" transform="translate(279 834.5)" fill="none" stroke="#eee" stroke-width="1"/><line x2="415.242" transform="translate(279 914.5)" fill="none" stroke="#eee" stroke-width="1"/><path d="M14.741,5.952A2.236,2.236,0,1,0,12.5,3.716,2.243,2.243,0,0,0,14.741,5.952Zm-4.025,15.54,1.118-4.919,2.348,2.236v6.708h2.236V17.132L14.07,14.9l.671-3.354a8.187,8.187,0,0,0,6.149,2.8V12.1a5.5,5.5,0,0,1-4.807-2.683L14.965,7.629a2.306,2.306,0,0,0-1.9-1.118c-.335,0-.559.112-.894.112L6.356,9.082v5.255H8.592v-3.8L10.6,9.753,8.815,18.809,3.337,17.691,2.89,19.927Z" transform="translate(312.11 699.52)" fill="#5a6676"/><path d="M18.2,5.8H11L9.2,4H3.8A1.786,1.786,0,0,0,2.009,5.8L2,16.6a1.794,1.794,0,0,0,1.8,1.8H18.2A1.794,1.794,0,0,0,20,16.6v-9A1.794,1.794,0,0,0,18.2,5.8ZM17.3,13H14.6v2.7H12.8V13H10.1V11.2h2.7V8.5h1.8v2.7h2.7Z" transform="translate(311 779)" fill="#5a6676"/><path d="M10.417,21.667H5v2.167h5.417V26l3.25-3.25-3.25-3.25Zm4.333,0v2.167h5.417V21.667Zm-2.167-13A2.167,2.167,0,1,0,10.427,6.5,2.173,2.173,0,0,0,12.583,8.667ZM18,0H7.167A2.173,2.173,0,0,0,5,2.167V17.333A2.173,2.173,0,0,0,7.167,19.5H18a2.173,2.173,0,0,0,2.167-2.167V2.167A2.173,2.173,0,0,0,18,0ZM7.167,2.167H18V13.542c0-1.809-3.608-2.708-5.417-2.708s-5.417.9-5.417,2.708Z" transform="translate(310 861)" fill="#5a6676"/><path d="M13.408,13.218c-2.936-.763-3.88-1.552-3.88-2.781,0-1.41,1.306-2.393,3.492-2.393,2.3,0,3.156,1.1,3.234,2.716h2.859A5.156,5.156,0,0,0,14.96,5.833V3H11.08V5.794c-2.509.543-4.527,2.173-4.527,4.669,0,2.988,2.47,4.475,6.079,5.342,3.234.776,3.88,1.914,3.88,3.117,0,.892-.634,2.315-3.492,2.315-2.665,0-3.712-1.19-3.854-2.716H6.32c.155,2.833,2.276,4.424,4.76,4.954v2.807h3.88V23.5c2.522-.479,4.527-1.94,4.527-4.592C19.487,15.236,16.344,13.981,13.408,13.218Z" transform="translate(310.68 938)" fill="#5a6676"/><g transform="matrix(1, 0, 0, 1, 0, 0)" filter="url(#i)"><rect width="417" height="448" rx="5" transform="translate(1190 135)" fill="#617185"/></g><text transform="translate(1216 264)" fill="#fff" stroke="rgba(0,0,0,0)" stroke-width="1" font-size="14" font-family="Roboto-Regular, Roboto"><tspan x="0" y="0">Costs spent per day</tspan></text><text transform="translate(1216 169)" fill="#fff" stroke="rgba(0,0,0,0)" stroke-width="1" font-size="16" font-family="Roboto-Regular, Roboto"><tspan x="0" y="0">Your current balance</tspan></text><text transform="translate(1216 207)" fill="#fff" font-size="26" font-family="Roboto-Regular, Roboto"><tspan x="0" y="0">452.38 credits</tspan></text><text transform="translate(1399 206)" fill="#fff" font-size="16" font-family="Roboto-Regular, Roboto" opacity="0.65"><tspan x="0" y="0">(19.0€)</tspan></text><line x2="364" transform="translate(1217.5 298.5)" fill="none" stroke="#fff" stroke-width="1" opacity="0.1"/><line x2="415" transform="translate(1191.5 541.359)" fill="none" stroke="#fff" stroke-width="1" opacity="0.214"/><text transform="translate(1567 566)" fill="#fff" stroke="rgba(0,0,0,0)" stroke-width="1" font-size="12" font-family="Roboto-Regular, Roboto"><tspan x="-107.186" y="0">VIEW MY ACCOUNT</tspan></text><path d="M10,6,8.59,7.41,13.17,12,8.59,16.59,10,18l6-6Z" transform="translate(1575.41 549.057)" fill="#fff"/><g transform="translate(1132 149)"><g transform="translate(85 334)" fill="none" stroke="#fff" stroke-width="1"><rect width="166" height="35" rx="4" stroke="none"/><rect x="0.5" y="0.5" width="165" height="34" rx="3.5" fill="none"/></g><text transform="translate(105 357)" fill="#fff" font-size="14" font-family="Roboto-Medium, Roboto" font-weight="500" letter-spacing="0.089em"><tspan x="0" y="0">DEPOSIT FUNDS</tspan></text></g><g transform="translate(1323 149)"><g transform="translate(85 334)" fill="none" stroke="#fff" stroke-width="1"><rect width="174" height="35" rx="4" stroke="none"/><rect x="0.5" y="0.5" width="173" height="34" rx="3.5" fill="none"/></g><text transform="translate(101 357)" fill="#fff" font-size="14" font-family="Roboto-Medium, Roboto" font-weight="500" letter-spacing="0.089em"><tspan x="0" y="0">WITHDRAW FUNDS</tspan></text></g><text transform="translate(1220 455)" fill="#fff" stroke="rgba(0,0,0,0)" stroke-width="1" font-size="12" font-family="Roboto-Regular, Roboto"><tspan x="-3.369" y="0">8</tspan></text><text transform="translate(1413 455)" fill="#fff" stroke="rgba(0,0,0,0)" stroke-width="1" font-size="12" font-family="Roboto-Regular, Roboto"><tspan x="-6.738" y="0">15</tspan></text><text transform="translate(1274 455)" fill="#fff" stroke="rgba(0,0,0,0)" stroke-width="1" font-size="12" font-family="Roboto-Regular, Roboto"><tspan x="-6.738" y="0">10</tspan></text><text transform="translate(1468 455)" fill="#fff" stroke="rgba(0,0,0,0)" stroke-width="1" font-size="12" font-family="Roboto-Regular, Roboto"><tspan x="-6.738" y="0">17</tspan></text><text transform="translate(1246 455)" fill="#fff" stroke="rgba(0,0,0,0)" stroke-width="1" font-size="12" font-family="Roboto-Regular, Roboto"><tspan x="-3.369" y="0">9</tspan></text><text transform="translate(1440 455)" fill="#fff" stroke="rgba(0,0,0,0)" stroke-width="1" font-size="12" font-family="Roboto-Regular, Roboto"><tspan x="-6.738" y="0">16</tspan></text><text transform="translate(1302 455)" fill="#fff" stroke="rgba(0,0,0,0)" stroke-width="1" font-size="12" font-family="Roboto-Regular, Roboto"><tspan x="-6.738" y="0">11</tspan></text><text transform="translate(1495 455)" fill="#fff" stroke="rgba(0,0,0,0)" stroke-width="1" font-size="12" font-family="Roboto-Regular, Roboto"><tspan x="-6.738" y="0">18</tspan></text><text transform="translate(1330 455)" fill="#fff" stroke="rgba(0,0,0,0)" stroke-width="1" font-size="12" font-family="Roboto-Regular, Roboto"><tspan x="-6.738" y="0">12</tspan></text><text transform="translate(1523 455)" fill="#fff" stroke="rgba(0,0,0,0)" stroke-width="1" font-size="12" font-family="Roboto-Regular, Roboto"><tspan x="-6.738" y="0">19</tspan></text><text transform="translate(1358 455)" fill="#fff" stroke="rgba(0,0,0,0)" stroke-width="1" font-size="12" font-family="Roboto-Regular, Roboto"><tspan x="-6.738" y="0">13</tspan></text><text transform="translate(1550 455)" fill="#fff" stroke="rgba(0,0,0,0)" stroke-width="1" font-size="12" font-family="Roboto-Regular, Roboto"><tspan x="-6.738" y="0">20</tspan></text><text transform="translate(1385 455)" fill="#fff" stroke="rgba(0,0,0,0)" stroke-width="1" font-size="12" font-family="Roboto-Regular, Roboto"><tspan x="-6.738" y="0">14</tspan></text><text transform="translate(1578 455)" fill="#fff" stroke="rgba(0,0,0,0)" stroke-width="1" font-size="12" font-family="Roboto-Regular, Roboto"><tspan x="-6.738" y="0">21</tspan></text><line x2="364" transform="translate(1217.5 434.5)" fill="none" stroke="#fff" stroke-width="1" opacity="0.1"/><line x2="364" transform="translate(1217.5 318.5)" fill="none" stroke="#fff" stroke-width="1" opacity="0.1"/><line x2="364" transform="translate(1217.5 337.5)" fill="none" stroke="#fff" stroke-width="1" opacity="0.1"/><line x2="364" transform="translate(1217.5 357.5)" fill="none" stroke="#fff" stroke-width="1" opacity="0.1"/><line x2="364" transform="translate(1217.5 376.5)" fill="none" stroke="#fff" stroke-width="1" opacity="0.1"/><line x2="364" transform="translate(1217.5 395.5)" fill="none" stroke="#fff" stroke-width="1" opacity="0.1"/><line x2="364" transform="translate(1217.5 415.5)" fill="none" stroke="#fff" stroke-width="1" opacity="0.1"/><line x2="364" transform="translate(1217.5 279.5)" fill="none" stroke="#fff" stroke-width="1" opacity="0.1"/><rect width="9" height="85" transform="translate(1218 349)" fill="#fff" opacity="0.342"/><rect width="9" height="155" transform="translate(1245 279)" fill="#fff" opacity="0.342"/><rect width="9" height="66" transform="translate(1273 368)" fill="#fff" opacity="0.342"/><rect width="9" height="53" transform="translate(1300 381)" fill="#fff" opacity="0.342"/><rect width="9" height="66" transform="translate(1327 368)" fill="#fff" opacity="0.342"/><rect width="9" height="48" transform="translate(1355 386)" fill="#fff" opacity="0.342"/><rect width="9" height="77" transform="translate(1382 357)" fill="#fff" opacity="0.342"/><rect width="9" height="96" transform="translate(1409 338)" fill="#fff" opacity="0.342"/><rect width="9" height="55" transform="translate(1436 379)" fill="#fff" opacity="0.342"/><rect width="9" height="66" transform="translate(1464 368)" fill="#fff" opacity="0.342"/><rect width="9" height="29" transform="translate(1491 405)" fill="#fff" opacity="0.342"/><rect width="9" height="77" transform="translate(1518 357)" fill="#fff" opacity="0.342"/><rect width="9" height="13" transform="translate(1546 421)" fill="#fff" opacity="0.342"/><rect width="9" height="8" transform="translate(1573 426)" fill="#fff" opacity="0.342"/><path d="M40.641-40.365A1.269,1.269,0,0,1,41.9-39.09V-12.1a1.269,1.269,0,0,1-1.262,1.275H38.566l-5.66-5.716a.523.523,0,0,0-.372-.156.524.524,0,0,0-.372.156L29.5-13.851a.534.534,0,0,0-.154.376.534.534,0,0,0,.154.376l2.25,2.272H23.354l11.186-11.3h.012l3.035-3.065a.535.535,0,0,0,0-.751l-5.053-5.1a.522.522,0,0,0-.744,0l-2.666,2.693a.535.535,0,0,0,0,.751l1.637,1.653a.535.535,0,0,1,0,.751L16.534-10.828H14.129A1.269,1.269,0,0,1,12.866-12.1V-39.09a1.269,1.269,0,0,1,1.262-1.275h2.355l5.35,5.4a.523.523,0,0,0,.744,0l2.666-2.693a.535.535,0,0,0,0-.751L23.3-40.365h7.748L17.147-26.323a.535.535,0,0,0,0,.751l5.208,5.259a.522.522,0,0,0,.744,0L25.764-23a.535.535,0,0,0,0-.751l-1.8-1.815a.535.535,0,0,1,0-.751L37.872-40.365Z" transform="translate(11 54.335)" fill="#fff" fill-rule="evenodd"/></g></svg>