<svg xmlns="http://www.w3.org/2000/svg" xmlns:xlink="http://www.w3.org/1999/xlink" width="426" height="457" viewBox="0 0 426 457"><defs><filter id="a" x="0" y="0" width="426" height="457" filterUnits="userSpaceOnUse"><feOffset dy="1" input="SourceAlpha"/><feGaussianBlur stdDeviation="1.5" result="b"/><feFlood flood-opacity="0.2"/><feComposite operator="in" in2="b"/><feComposite in="SourceGraphic"/></filter></defs><g transform="translate(-1185.5 -131.5)"><g transform="matrix(1, 0, 0, 1, 1185.5, 131.5)" filter="url(#a)"><rect width="417" height="448" rx="5" transform="translate(4.5 3.5)" fill="#617185"/></g><text transform="translate(1216 264)" fill="#fff" stroke="rgba(0,0,0,0)" stroke-width="1" font-size="14" font-family="Roboto-Regular, Roboto"><tspan x="0" y="0">Costs spent per day</tspan></text><text transform="translate(1216 169)" fill="#fff" stroke="rgba(0,0,0,0)" stroke-width="1" font-size="16" font-family="Roboto-Regular, Roboto"><tspan x="0" y="0">Your current balance</tspan></text><text transform="translate(1216 207)" fill="#fff" font-size="26" font-family="Roboto-Regular, Roboto"><tspan x="0" y="0">452.38 credits</tspan></text><text transform="translate(1399 206)" fill="#fff" font-size="16" font-family="Roboto-Regular, Roboto" opacity="0.65"><tspan x="0" y="0">(19.0€)</tspan></text><line x2="364" transform="translate(1217.5 298.5)" fill="none" stroke="#fff" stroke-width="1" opacity="0.1"/><line x2="415" transform="translate(1191.5 541.359)" fill="none" stroke="#fff" stroke-width="1" opacity="0.214"/><text transform="translate(1567 566)" fill="#fff" stroke="rgba(0,0,0,0)" stroke-width="1" font-size="12" font-family="Roboto-Regular, Roboto"><tspan x="-107.186" y="0">VIEW MY ACCOUNT</tspan></text><path d="M10,6,8.59,7.41,13.17,12,8.59,16.59,10,18l6-6Z" transform="translate(1575.41 549.057)" fill="#fff"/><g transform="translate(1132 149)"><g transform="translate(85 334)" fill="none" stroke="#fff" stroke-width="1"><rect width="166" height="35" rx="4" stroke="none"/><rect x="0.5" y="0.5" width="165" height="34" rx="3.5" fill="none"/></g><text transform="translate(105 357)" fill="#fff" font-size="14" font-family="Roboto-Medium, Roboto" font-weight="500" letter-spacing="0.089em"><tspan x="-4" y="0">DEPOSIT CREDITS</tspan></text></g><g transform="translate(1323 149)"><g transform="translate(85 334)" fill="none" stroke="#fff" stroke-width="1"><rect width="174" height="35" rx="4" stroke="none"/><rect x="0.5" y="0.5" width="173" height="34" rx="3.5" fill="none"/></g><text transform="translate(101 357)" fill="#fff" font-size="14" font-family="Roboto-Medium, Roboto" font-weight="500" letter-spacing="0.089em"><tspan x="-4" y="0">WITHDRAW CREDITS</tspan></text></g><text transform="translate(1220 455)" fill="#fff" stroke="rgba(0,0,0,0)" stroke-width="1" font-size="12" font-family="Roboto-Regular, Roboto"><tspan x="-3.369" y="0">8</tspan></text><text transform="translate(1413 455)" fill="#fff" stroke="rgba(0,0,0,0)" stroke-width="1" font-size="12" font-family="Roboto-Regular, Roboto"><tspan x="-6.738" y="0">15</tspan></text><text transform="translate(1274 455)" fill="#fff" stroke="rgba(0,0,0,0)" stroke-width="1" font-size="12" font-family="Roboto-Regular, Roboto"><tspan x="-6.738" y="0">10</tspan></text><text transform="translate(1468 455)" fill="#fff" stroke="rgba(0,0,0,0)" stroke-width="1" font-size="12" font-family="Roboto-Regular, Roboto"><tspan x="-6.738" y="0">17</tspan></text><text transform="translate(1246 455)" fill="#fff" stroke="rgba(0,0,0,0)" stroke-width="1" font-size="12" font-family="Roboto-Regular, Roboto"><tspan x="-3.369" y="0">9</tspan></text><text transform="translate(1440 455)" fill="#fff" stroke="rgba(0,0,0,0)" stroke-width="1" font-size="12" font-family="Roboto-Regular, Roboto"><tspan x="-6.738" y="0">16</tspan></text><text transform="translate(1302 455)" fill="#fff" stroke="rgba(0,0,0,0)" stroke-width="1" font-size="12" font-family="Roboto-Regular, Roboto"><tspan x="-6.738" y="0">11</tspan></text><text transform="translate(1495 455)" fill="#fff" stroke="rgba(0,0,0,0)" stroke-width="1" font-size="12" font-family="Roboto-Regular, Roboto"><tspan x="-6.738" y="0">18</tspan></text><text transform="translate(1330 455)" fill="#fff" stroke="rgba(0,0,0,0)" stroke-width="1" font-size="12" font-family="Roboto-Regular, Roboto"><tspan x="-6.738" y="0">12</tspan></text><text transform="translate(1523 455)" fill="#fff" stroke="rgba(0,0,0,0)" stroke-width="1" font-size="12" font-family="Roboto-Regular, Roboto"><tspan x="-6.738" y="0">19</tspan></text><text transform="translate(1358 455)" fill="#fff" stroke="rgba(0,0,0,0)" stroke-width="1" font-size="12" font-family="Roboto-Regular, Roboto"><tspan x="-6.738" y="0">13</tspan></text><text transform="translate(1550 455)" fill="#fff" stroke="rgba(0,0,0,0)" stroke-width="1" font-size="12" font-family="Roboto-Regular, Roboto"><tspan x="-6.738" y="0">20</tspan></text><text transform="translate(1385 455)" fill="#fff" stroke="rgba(0,0,0,0)" stroke-width="1" font-size="12" font-family="Roboto-Regular, Roboto"><tspan x="-6.738" y="0">14</tspan></text><text transform="translate(1578 455)" fill="#fff" stroke="rgba(0,0,0,0)" stroke-width="1" font-size="12" font-family="Roboto-Regular, Roboto"><tspan x="-6.738" y="0">21</tspan></text><line x2="364" transform="translate(1217.5 434.5)" fill="none" stroke="#fff" stroke-width="1" opacity="0.1"/><line x2="364" transform="translate(1217.5 318.5)" fill="none" stroke="#fff" stroke-width="1" opacity="0.1"/><line x2="364" transform="translate(1217.5 337.5)" fill="none" stroke="#fff" stroke-width="1" opacity="0.1"/><line x2="364" transform="translate(1217.5 357.5)" fill="none" stroke="#fff" stroke-width="1" opacity="0.1"/><line x2="364" transform="translate(1217.5 376.5)" fill="none" stroke="#fff" stroke-width="1" opacity="0.1"/><line x2="364" transform="translate(1217.5 395.5)" fill="none" stroke="#fff" stroke-width="1" opacity="0.1"/><line x2="364" transform="translate(1217.5 415.5)" fill="none" stroke="#fff" stroke-width="1" opacity="0.1"/><line x2="364" transform="translate(1217.5 279.5)" fill="none" stroke="#fff" stroke-width="1" opacity="0.1"/><rect width="9" height="85" transform="translate(1218 349)" fill="#fff" opacity="0.342"/><rect width="9" height="155" transform="translate(1245 279)" fill="#fff" opacity="0.342"/><rect width="9" height="66" transform="translate(1273 368)" fill="#fff" opacity="0.342"/><rect width="9" height="53" transform="translate(1300 381)" fill="#fff" opacity="0.342"/><rect width="9" height="66" transform="translate(1327 368)" fill="#fff" opacity="0.342"/><rect width="9" height="48" transform="translate(1355 386)" fill="#fff" opacity="0.342"/><rect width="9" height="77" transform="translate(1382 357)" fill="#fff" opacity="0.342"/><rect width="9" height="96" transform="translate(1409 338)" fill="#fff" opacity="0.342"/><rect width="9" height="55" transform="translate(1436 379)" fill="#fff" opacity="0.342"/><rect width="9" height="66" transform="translate(1464 368)" fill="#fff" opacity="0.342"/><rect width="9" height="29" transform="translate(1491 405)" fill="#fff" opacity="0.342"/><rect width="9" height="77" transform="translate(1518 357)" fill="#fff" opacity="0.342"/><rect width="9" height="13" transform="translate(1546 421)" fill="#fff" opacity="0.342"/><rect width="9" height="8" transform="translate(1573 426)" fill="#fff" opacity="0.342"/></g></svg>