<svg xmlns="http://www.w3.org/2000/svg" xmlns:xlink="http://www.w3.org/1999/xlink" width="885" height="602.961" viewBox="0 0 885 602.961"><defs><filter id="a" x="0" y="0" width="885" height="602.961" filterUnits="userSpaceOnUse"><feOffset dy="1" input="SourceAlpha"/><feGaussianBlur stdDeviation="1.5" result="b"/><feFlood flood-opacity="0.2"/><feComposite operator="in" in2="b"/><feComposite in="SourceGraphic"/></filter></defs><g transform="translate(-281.5 -139.539)"><g transform="matrix(1, 0, 0, 1, 281.5, 139.54)" filter="url(#a)"><path d="M5.231,0H870.77C873.658,0,876,4.186,876,9.35V584.611c0,5.164-2.342,9.35-5.23,9.35H5.231c-2.889,0-5.231-4.186-5.231-9.35V9.35C0,4.186,2.342,0,5.231,0Z" transform="translate(4.5 3.5)" fill="#fff"/></g><text transform="translate(309 168)" fill="#666" font-size="14" font-family="Roboto-Bold, Roboto" font-weight="700" letter-spacing="0.01em"><tspan x="0" y="0">Requested at</tspan></text><text transform="translate(309 208)" fill="#666" font-size="14" font-family="Roboto-Bold, Roboto" font-weight="700" letter-spacing="0.01em"><tspan x="0" y="0">Host</tspan></text><text transform="translate(309 327)" fill="#666" font-size="14" font-family="Roboto-Bold, Roboto" font-weight="700" letter-spacing="0.01em"><tspan x="0" y="0">Endpoint</tspan></text><text transform="translate(310 288)" fill="#666" font-size="14" font-family="Roboto-Bold, Roboto" font-weight="700" letter-spacing="0.01em"><tspan x="0" y="0">Status</tspan></text><text transform="translate(310 367)" fill="#666" font-size="14" font-family="Roboto-Bold, Roboto" font-weight="700" letter-spacing="0.01em"><tspan x="0" y="0">Full request url</tspan></text><text transform="translate(310 407)" fill="#666" font-size="14" font-family="Roboto-Bold, Roboto" font-weight="700" letter-spacing="0.01em"><tspan x="0" y="0">Response time</tspan></text><text transform="translate(495 169)" fill="#212121" font-size="15" font-family="Roboto-Regular, Roboto" letter-spacing="0.01em"><tspan x="0" y="0">2019-10-21 at 10:38</tspan></text><text transform="translate(495 209)" fill="#212121" font-size="15" font-family="Roboto-Regular, Roboto" letter-spacing="0.01em"><tspan x="0" y="0">api.0xcert.org</tspan></text><text transform="translate(495 328)" fill="#212121" font-size="15" font-family="Roboto-Regular, Roboto" letter-spacing="0.01em"><tspan x="0" y="0">/ledgers</tspan></text><text transform="translate(495 289)" fill="#212121" font-size="15" font-family="Roboto-Regular, Roboto" letter-spacing="0.01em"><tspan x="0" y="0">200</tspan></text><text transform="translate(495 368)" fill="#212121" font-size="15" font-family="Roboto-Regular, Roboto" letter-spacing="0.01em"><tspan x="0" y="0">/ledgers?limit=6&amp;skip=0&amp;sort=4</tspan></text><text transform="translate(495 408)" fill="#212121" font-size="15" font-family="Roboto-Regular, Roboto" letter-spacing="0.01em"><tspan x="0" y="0">34ms</tspan></text><text transform="translate(310 248)" fill="#666" font-size="14" font-family="Roboto-Bold, Roboto" font-weight="700" letter-spacing="0.01em"><tspan x="0" y="0">Method</tspan></text><text transform="translate(495 249)" fill="#212121" font-size="15" font-family="Roboto-Regular, Roboto" letter-spacing="0.01em"><tspan x="0" y="0">GET</tspan></text><rect width="875" height="1" transform="translate(286 183)" opacity="0.1"/><rect width="875" height="1" transform="translate(286 223)" opacity="0.1"/><rect width="875" height="1" transform="translate(286 263)" opacity="0.1"/><rect width="875" height="1" transform="translate(286 302)" opacity="0.1"/><rect width="875" height="1" transform="translate(286 342)" opacity="0.1"/><rect width="875" height="1" transform="translate(286 382)" opacity="0.1"/><path d="M0,0H876a0,0,0,0,1,0,0V307a6,6,0,0,1-6,6H6a6,6,0,0,1-6-6V0A0,0,0,0,1,0,0Z" transform="translate(286 424)" fill="#363636"/><text transform="translate(312 449)" fill="#fff" stroke="rgba(0,0,0,0)" stroke-width="1" font-size="14" font-family="Courier"><tspan x="0" y="11">{</tspan><tspan x="0" y="36" xml:space="preserve">  &quot;type&quot;: &quot;object&quot;,</tspan><tspan x="0" y="61" xml:space="preserve">  &quot;properties&quot;: {</tspan><tspan x="0" y="86" xml:space="preserve">    &quot;name&quot;: {</tspan><tspan x="0" y="111" xml:space="preserve">      &quot;type&quot;: &quot;string&quot;</tspan><tspan x="0" y="136" xml:space="preserve">      &quot;method&quot;: &quot;string&quot;</tspan><tspan x="0" y="161" xml:space="preserve">      &quot;status&quot;: &quot;string&quot;</tspan><tspan x="0" y="186" xml:space="preserve">      &quot;request&quot;: &quot;string&quot;         </tspan><tspan x="0" y="211" xml:space="preserve">    }</tspan><tspan x="0" y="236" xml:space="preserve">  }</tspan><tspan x="0" y="261">}</tspan></text></g></svg>