<?xml version="1.0" encoding="UTF-8" standalone="no"?><!DOCTYPE svg PUBLIC "-//W3C//DTD SVG 1.1//EN" "http://www.w3.org/Graphics/SVG/1.1/DTD/svg11.dtd"><svg width="767" height="984" viewBox="0 0 767 984" version="1.1" xmlns="http://www.w3.org/2000/svg" xmlns:xlink="http://www.w3.org/1999/xlink" xml:space="preserve" xmlns:serif="http://www.serif.com/" style="fill-rule:evenodd;clip-rule:evenodd;stroke-linejoin:round;stroke-miterlimit:2;"><rect x="0" y="0" width="766.755" height="983.34" style="fill:none;"/><clipPath id="_clip1"><rect x="0" y="0" width="766.755" height="983.34"/></clipPath><g clip-path="url(#_clip1)"><g><g><g><path d="M416.421,204.913L416.421,232.346L695.465,395.372L695.465,366.497" style="fill:#505050;"/><path d="M974.509,204.913L974.509,233.218L695.465,395.372L695.465,366.411" style="fill:#141414;"/><path d="M416.421,205.7L695.354,366.49L974.464,204.917L928.141,178.469L700.31,43.688L416.421,205.7Z" style="fill:#373737;"/><g><path d="M614,56.378L613.986,56.361L695.328,9.594L776.028,56.344L775.939,56.394L776.059,137.952L695.37,184.622L695.37,184.665L614.126,138.38L614,56.378Z" style="fill:#555;"/><path d="M694.609,103.564L776.025,56.344L775.936,56.394L776.056,137.952L695.367,184.622L695.367,184.665L694.609,103.564Z" style="fill:#676767;"/><path d="M614,56.378L613.986,56.361L694.822,103.145L695.368,184.623L695.368,184.666L614.124,138.381L614,56.378Z" style="fill:#767676;"/></g><g><path d="M730,124.378L729.986,124.361L811.328,77.594L892.028,124.344L891.939,124.394L892.059,205.952L811.37,252.622L811.37,252.665L730.126,206.38L730,124.378Z" style="fill:#555;"/><path d="M730,124.378L729.986,124.361L810.822,171.145L811.368,252.623L811.368,252.666L730.124,206.381L730,124.378Z" style="fill:#767676;"/></g><g><path d="M498,126.378L497.986,126.361L579.328,79.594L660.028,126.344L659.939,126.394L660.059,207.952L579.37,254.622L579.37,254.665L498.126,208.38L498,126.378Z" style="fill:#555;"/><path d="M578.609,173.564L660.025,126.344L659.936,126.394L660.056,207.952L579.367,254.622L579.367,254.665L578.609,173.564Z" style="fill:#676767;"/><path d="M498,126.378L497.986,126.361L578.822,173.145L579.368,254.623L579.368,254.666L498.124,208.381L498,126.378Z" style="fill:#767676;"/></g><g><path d="M614,192.378L613.986,192.361L695.328,145.594L776.028,192.344L775.939,192.394L776.059,273.952L695.37,320.622L695.37,320.665L614.126,274.38L614,192.378Z" style="fill:#555;"/><path d="M694.609,239.564L776.025,192.344L775.936,192.394L776.056,273.952L695.367,320.622L695.367,320.665L694.609,239.564Z" style="fill:#676767;"/><path d="M614,192.378L613.986,192.361L694.822,239.145L695.368,320.623L695.368,320.666L614.124,274.381L614,192.378Z" style="fill:#767676;"/></g></g><g><path d="M416.543,327.434L416.543,235.268L695.465,398.594L695.465,492.201" style="fill:url(#_Linear2);"/><path d="M974.465,327.434L974.465,235.268L695.543,398.594L695.543,492.201" style="fill:url(#_Linear3);"/></g></g><g><g><path d="M4.818,448.577L4.818,476.01L283.862,639.036L283.862,610.161" style="fill:#505050;"/><path d="M562.906,448.577L562.906,476.882L283.862,639.036L283.862,610.075" style="fill:#141414;"/><path d="M4.818,449.364L283.751,610.154L562.861,448.581L516.538,422.133L288.707,287.352L4.818,449.364Z" style="fill:#373737;"/><g><path d="M202.397,300.042L202.383,300.025L283.725,253.258L364.425,300.008L364.336,300.058L364.456,381.616L283.767,428.286L283.767,428.329L202.523,382.044L202.397,300.042Z" style="fill:#555;"/><path d="M283.006,347.228L364.422,300.008L364.333,300.058L364.453,381.616L283.764,428.286L283.764,428.329L283.006,347.228Z" style="fill:#676767;"/><path d="M202.397,300.042L202.383,300.025L283.219,346.809L283.765,428.287L283.765,428.33L202.521,382.045L202.397,300.042Z" style="fill:#767676;"/></g><g><path d="M318.397,368.042L318.383,368.025L399.725,321.258L480.425,368.008L480.336,368.058L480.456,449.616L399.767,496.286L399.767,496.329L318.523,450.044L318.397,368.042Z" style="fill:#555;"/><path d="M399.006,415.228L480.422,368.008L480.333,368.058L480.453,449.616L399.764,496.286L399.764,496.329L399.006,415.228Z" style="fill:#676767;"/><path d="M318.397,368.042L318.383,368.025L399.219,414.809L399.765,496.287L399.765,496.33L318.521,450.045L318.397,368.042Z" style="fill:#767676;"/></g><g><path d="M86.397,370.042L86.383,370.025L167.725,323.258L248.425,370.008L248.336,370.058L248.456,451.616L167.767,498.286L167.767,498.329L86.523,452.044L86.397,370.042Z" style="fill:#555;"/><path d="M167.006,417.228L248.422,370.008L248.333,370.058L248.453,451.616L167.764,498.286L167.764,498.329L167.006,417.228Z" style="fill:#676767;"/><path d="M86.397,370.042L86.383,370.025L167.219,416.809L167.765,498.287L167.765,498.33L86.521,452.045L86.397,370.042Z" style="fill:#767676;"/></g><g><path d="M202.397,436.042L202.383,436.025L283.725,389.258L364.425,436.008L364.336,436.058L364.456,517.616L283.767,564.286L283.767,564.329L202.523,518.044L202.397,436.042Z" style="fill:#555;"/><path d="M283.006,483.228L364.422,436.008L364.333,436.058L364.453,517.616L283.764,564.286L283.764,564.329L283.006,483.228Z" style="fill:#676767;"/><path d="M202.397,436.042L202.383,436.025L283.219,482.809L283.765,564.287L283.765,564.33L202.521,518.045L202.397,436.042Z" style="fill:#767676;"/></g></g><g><path d="M4.94,571.098L4.94,478.932L283.862,642.258L283.862,735.865" style="fill:url(#_Linear4);"/><path d="M562.862,571.098L562.862,478.932L283.94,642.258L283.94,735.865" style="fill:url(#_Linear5);"/></g></g><g><g><path d="M416.421,687.587L416.421,715.02L695.465,878.046L695.465,849.171" style="fill:#505050;"/><path d="M974.509,687.587L974.509,715.892L695.465,878.046L695.465,849.085" style="fill:#141414;"/><path d="M416.421,688.374L695.354,849.164L974.464,687.591L928.141,661.143L700.31,526.362L416.421,688.374Z" style="fill:#373737;"/><g><path d="M614,539.052L613.986,539.035L695.328,492.268L776.028,539.018L775.939,539.068L776.059,620.626L695.37,667.296L695.37,667.339L614.126,621.054L614,539.052Z" style="fill:#555;"/><path d="M694.609,586.238L776.025,539.018L775.936,539.068L776.056,620.626L695.367,667.296L695.367,667.339L694.609,586.238Z" style="fill:#676767;"/><path d="M614,539.052L613.986,539.035L694.822,585.819L695.368,667.297L695.368,667.34L614.124,621.055L614,539.052Z" style="fill:#767676;"/></g><g><path d="M730,607.052L729.986,607.035L811.328,560.268L892.028,607.018L891.939,607.068L892.059,688.626L811.37,735.296L811.37,735.339L730.126,689.054L730,607.052Z" style="fill:#555;"/><path d="M730,607.052L729.986,607.035L810.822,653.819L811.368,735.297L811.368,735.34L730.124,689.055L730,607.052Z" style="fill:#767676;"/></g><g><path d="M498,609.052L497.986,609.035L579.328,562.268L660.028,609.018L659.939,609.068L660.059,690.626L579.37,737.296L579.37,737.339L498.126,691.054L498,609.052Z" style="fill:#555;"/><path d="M578.609,656.238L660.025,609.018L659.936,609.068L660.056,690.626L579.367,737.296L579.367,737.339L578.609,656.238Z" style="fill:#676767;"/><path d="M498,609.052L497.986,609.035L578.822,655.819L579.368,737.297L579.368,737.34L498.124,691.055L498,609.052Z" style="fill:#767676;"/></g><g><path d="M614,675.052L613.986,675.035L695.328,628.268L776.028,675.018L775.939,675.068L776.059,756.626L695.37,803.296L695.37,803.339L614.126,757.054L614,675.052Z" style="fill:#555;"/><path d="M694.609,722.238L776.025,675.018L775.936,675.068L776.056,756.626L695.367,803.296L695.367,803.339L694.609,722.238Z" style="fill:#676767;"/><path d="M614,675.052L613.986,675.035L694.822,721.819L695.368,803.297L695.368,803.34L614.124,757.055L614,675.052Z" style="fill:#767676;"/></g></g><g><path d="M416.543,810.108L416.543,717.942L695.465,881.268L695.465,974.875" style="fill:url(#_Linear6);"/><path d="M974.465,810.108L974.465,717.942L695.543,881.268L695.543,974.875" style="fill:url(#_Linear7);"/></g></g></g></g><defs><linearGradient id="_Linear2" x1="0" y1="0" x2="1" y2="0" gradientUnits="userSpaceOnUse" gradientTransform="matrix(-29.0079,46.7618,-46.7618,-29.0079,614.578,350.374)"><stop offset="0" style="stop-color:#505050;stop-opacity:0.44"/><stop offset="1" style="stop-color:#2f3132;stop-opacity:0"/></linearGradient><linearGradient id="_Linear3" x1="0" y1="0" x2="1" y2="0" gradientUnits="userSpaceOnUse" gradientTransform="matrix(36.2599,61.407,-61.407,36.2599,776.43,350.374)"><stop offset="0" style="stop-color:#000;stop-opacity:0.49"/><stop offset="1" style="stop-color:#030304;stop-opacity:0"/></linearGradient><linearGradient id="_Linear4" x1="0" y1="0" x2="1" y2="0" gradientUnits="userSpaceOnUse" gradientTransform="matrix(-29.0079,46.7618,-46.7618,-29.0079,202.975,594.038)"><stop offset="0" style="stop-color:#505050;stop-opacity:0.44"/><stop offset="1" style="stop-color:#2f3132;stop-opacity:0"/></linearGradient><linearGradient id="_Linear5" x1="0" y1="0" x2="1" y2="0" gradientUnits="userSpaceOnUse" gradientTransform="matrix(36.2599,61.407,-61.407,36.2599,364.828,594.038)"><stop offset="0" style="stop-color:#000;stop-opacity:0.49"/><stop offset="1" style="stop-color:#030304;stop-opacity:0"/></linearGradient><linearGradient id="_Linear6" x1="0" y1="0" x2="1" y2="0" gradientUnits="userSpaceOnUse" gradientTransform="matrix(-29.0079,46.7618,-46.7618,-29.0079,614.578,833.048)"><stop offset="0" style="stop-color:#505050;stop-opacity:0.44"/><stop offset="1" style="stop-color:#2f3132;stop-opacity:0"/></linearGradient><linearGradient id="_Linear7" x1="0" y1="0" x2="1" y2="0" gradientUnits="userSpaceOnUse" gradientTransform="matrix(36.2599,61.407,-61.407,36.2599,776.43,833.048)"><stop offset="0" style="stop-color:#000;stop-opacity:0.49"/><stop offset="1" style="stop-color:#030304;stop-opacity:0"/></linearGradient></defs></svg>