<?xml version="1.0" encoding="UTF-8" standalone="no"?>
<svg width="95" height="100" viewBox="0 0 95 99" version="1.1" xmlns="http://www.w3.org/2000/svg" xmlns:xlink="http://www.w3.org/1999/xlink" xml:space="preserve" xmlns:serif="http://www.serif.com/" style="fill-rule:evenodd;clip-rule:evenodd;stroke-linejoin:round;stroke-miterlimit:2;">
    <g transform="matrix(1,0,0,1,-4218.6,-9028.6)">
        <g transform="matrix(0.511514,0,0,0.58047,3272.77,5041.6)">
            <g transform="matrix(1,0,0,1,1.15143,-1.55702)">
                <g transform="matrix(1.95498,0,0,1.72274,-6398.21,-8685.37)">
                    <path d="M4264.63,9029.51C4264.85,9029.55 4264.89,9029.59 4264.96,9029.62L4285.87,9042.49C4286.07,9042.64 4286.19,9042.73 4286.22,9043.13L4286.22,9066.2C4286.19,9066.63 4286.07,9066.7 4285.85,9066.85L4264.94,9079.09C4264.71,9079.2 4264.56,9079.27 4264.18,9079.08L4243.91,9066.93C4243.57,9066.69 4243.57,9066.55 4243.55,9066.29L4243.55,9042.49C4243.58,9042.07 4243.7,9041.99 4243.91,9041.84L4264.18,9029.62C4264.49,9029.46 4264.52,9029.51 4264.63,9029.51ZM4245.05,9065.86L4263.93,9077.18L4264.13,9055.77L4245.05,9044.18L4245.05,9065.86ZM4284.72,9044.41C4284.68,9044.46 4284.64,9044.5 4284.58,9044.53L4265.63,9055.78L4265.43,9077.06L4284.72,9065.77L4284.72,9044.41ZM4245.45,9042.67L4264.89,9054.48L4283.82,9043.24C4283.94,9043.18 4284.01,9043.15 4284.06,9043.14L4264.56,9031.14L4245.45,9042.67Z" style="fill:white;"/>
                </g>
                <g transform="matrix(1.95498,0,0,1.72274,-6347.19,-8612.26)">
                    <path d="M4264.63,9029.51C4264.85,9029.55 4264.89,9029.59 4264.96,9029.62L4285.87,9042.49C4286.07,9042.64 4286.19,9042.73 4286.22,9043.13L4286.22,9066.2C4286.19,9066.63 4286.07,9066.7 4285.85,9066.85L4264.94,9079.09C4264.71,9079.2 4264.56,9079.27 4264.18,9079.08L4243.91,9066.93C4243.57,9066.69 4243.57,9066.55 4243.55,9066.29L4243.55,9042.49C4243.58,9042.07 4243.7,9041.99 4243.91,9041.84L4264.18,9029.62C4264.49,9029.46 4264.52,9029.51 4264.63,9029.51ZM4245.05,9065.86L4263.93,9077.18L4264.13,9055.77L4245.05,9044.18L4245.05,9065.86ZM4284.72,9044.41C4284.68,9044.46 4284.64,9044.5 4284.58,9044.53L4265.63,9055.78L4265.43,9077.06L4284.72,9065.77L4284.72,9044.41ZM4245.45,9042.67L4264.89,9054.48L4283.82,9043.24C4283.94,9043.18 4284.01,9043.15 4284.06,9043.14L4264.56,9031.14L4245.45,9042.67Z" style="fill:white;"/>
                </g>
                <g transform="matrix(1.95498,0,0,1.72274,-6448.14,-8612.26)">
                    <path d="M4264.63,9029.51C4264.85,9029.55 4264.89,9029.59 4264.96,9029.62L4285.87,9042.49C4286.07,9042.64 4286.19,9042.73 4286.22,9043.13L4286.22,9066.2C4286.19,9066.63 4286.07,9066.7 4285.85,9066.85L4264.94,9079.09C4264.71,9079.2 4264.56,9079.27 4264.18,9079.08L4243.91,9066.93C4243.57,9066.69 4243.57,9066.55 4243.55,9066.29L4243.55,9042.49C4243.58,9042.07 4243.7,9041.99 4243.91,9041.84L4264.18,9029.62C4264.49,9029.46 4264.52,9029.51 4264.63,9029.51ZM4245.05,9065.86L4263.93,9077.18L4264.13,9055.77L4245.05,9044.18L4245.05,9065.86ZM4284.72,9044.41C4284.68,9044.46 4284.64,9044.5 4284.58,9044.53L4265.63,9055.78L4265.43,9077.06L4284.72,9065.77L4284.72,9044.41ZM4245.45,9042.67L4264.89,9054.48L4283.82,9043.24C4283.94,9043.18 4284.01,9043.15 4284.06,9043.14L4264.56,9031.14L4245.45,9042.67Z" style="fill:white;"/>
                </g>
                <g transform="matrix(1.95498,0,0,1.72274,-6398.21,-8685.37)">
                    <path d="M4281.8,9116.44L4283.26,9117.32L4264.65,9128.31C4264.4,9128.43 4264.14,9128.43 4263.88,9128.31L4246.15,9117.58L4247.63,9116.72L4264.28,9126.79L4281.8,9116.44Z" style="fill:white;"/>
                </g>
                <g transform="matrix(1.95498,0,0,1.72274,-6398.21,-8685.37)">
                    <path d="M4286.22,9052.19L4304.66,9063.77C4304.86,9063.93 4304.98,9064.14 4305.01,9064.4L4305.01,9080.65L4303.51,9079.73L4303.51,9064.82L4286.22,9053.96L4286.22,9052.19Z" style="fill:white;"/>
                </g>
                <g transform="matrix(1.95498,0,0,1.72274,-6398.21,-8685.37)">
                    <path d="M4243.55,9051.14L4243.55,9052.9L4226.27,9063.52L4226.27,9079.52L4224.77,9080.43L4224.77,9063.1C4224.79,9062.84 4224.91,9062.62 4225.12,9062.46L4243.55,9051.14Z" style="fill:white;"/>
                </g>
            </g>
        </g>
    </g>
</svg>
