<?xml version="1.0" encoding="UTF-8" standalone="no"?><!DOCTYPE svg PUBLIC "-//W3C//DTD SVG 1.1//EN" "http://www.w3.org/Graphics/SVG/1.1/DTD/svg11.dtd"><svg width="125" height="43" viewBox="0 0 125 43" version="1.1" xmlns="http://www.w3.org/2000/svg" xmlns:xlink="http://www.w3.org/1999/xlink" xml:space="preserve" xmlns:serif="http://www.serif.com/" style="fill-rule:evenodd;clip-rule:evenodd;stroke-linejoin:round;stroke-miterlimit:2;"><g><g><path d="M72.559,33.399C70.637,33.132 69.088,32.664 67.633,31.89C66.325,31.209 66.311,31.116 67.166,29.447C68.207,27.391 68.434,27.057 68.808,27.057C68.981,27.057 69.622,27.298 70.236,27.578C72.492,28.633 74.842,28.993 75.616,28.379C76.057,28.032 76.057,27.658 75.616,27.364C75.349,27.191 74.815,27.124 73.373,27.044C72.345,26.99 71.224,26.857 70.89,26.75C69.101,26.176 67.94,25.255 67.259,23.88C66.872,23.106 66.819,22.839 66.778,21.717C66.738,20.676 66.778,20.275 67.019,19.581C67.579,17.899 68.808,16.738 70.85,15.95C73.413,14.962 77.298,15.242 80.102,16.617C80.93,17.031 81.116,17.165 81.143,17.472C81.197,17.899 79.408,21.103 78.954,21.41C78.66,21.597 78.553,21.557 77.285,20.983C76.057,20.422 75.803,20.356 74.708,20.302C73.253,20.222 72.826,20.382 72.826,20.983C72.826,21.597 73.307,21.744 75.63,21.864C76.738,21.917 77.859,22.024 78.139,22.091C79.675,22.492 81.09,23.626 81.677,24.921C82.158,25.949 82.184,28.045 81.731,29.327C80.943,31.623 78.9,33.038 75.79,33.465C74.521,33.625 74.121,33.625 72.559,33.399Z" style="fill:#e6e5e5;fill-rule:nonzero;"/><path d="M21.709,32.998C21.508,32.798 21.495,31.73 21.495,20.93C21.495,10.757 21.522,9.048 21.682,8.901C21.829,8.781 23.124,8.768 26.862,8.808C31.014,8.848 31.948,8.888 32.482,9.075C35.553,10.116 37.248,12.586 37.248,15.977C37.248,16.671 37.181,17.512 37.101,17.846C36.928,18.633 37.021,18.927 37.542,19.234C38.904,20.022 39.851,21.197 40.412,22.799C40.706,23.666 40.759,24.013 40.759,25.589C40.773,26.924 40.719,27.578 40.546,28.112C39.771,30.582 38.276,32.064 35.78,32.811C34.818,33.105 34.565,33.118 28.357,33.172C22.536,33.212 21.909,33.198 21.709,32.998ZM33.924,26.497C34.672,26.083 34.912,25.282 34.511,24.521C34.098,23.72 33.764,23.653 30.466,23.653C27.97,23.653 27.476,23.68 27.369,23.853C27.182,24.147 27.196,26.43 27.396,26.63C27.516,26.75 28.384,26.79 30.48,26.79C33.23,26.79 33.443,26.777 33.924,26.497ZM30.693,17.966C31.481,17.232 31.361,15.723 30.493,15.323C30.039,15.122 27.609,15.122 27.396,15.336C27.182,15.549 27.182,17.872 27.396,18.086C27.503,18.193 28.05,18.246 28.971,18.246C30.226,18.246 30.426,18.22 30.693,17.966Z" style="fill:#e6e5e5;fill-rule:nonzero;"/><path d="M43.149,33.038C42.922,32.811 42.922,16.097 43.149,15.87C43.349,15.67 48.289,15.643 48.596,15.843C48.769,15.95 48.796,17.058 48.796,24.454C48.796,31.85 48.769,32.958 48.596,33.065C48.289,33.265 43.349,33.238 43.149,33.038Z" style="fill:#e6e5e5;fill-rule:nonzero;"/><path d="M54.416,32.985C54.229,32.811 54.203,32.117 54.203,27.444C54.203,24.013 54.149,22.011 54.069,21.837C53.936,21.61 53.775,21.584 52.467,21.584C50.491,21.584 50.571,21.717 50.625,18.446C50.652,16.417 50.705,15.95 50.865,15.843C50.972,15.776 51.666,15.71 52.4,15.71C53.135,15.71 53.829,15.643 53.936,15.576C54.096,15.469 54.149,14.909 54.203,12.279C54.243,10.53 54.323,9.021 54.376,8.941C54.523,8.701 59.69,8.701 59.917,8.928C60.037,9.048 60.077,9.956 60.077,12.172C60.077,15.002 60.103,15.282 60.317,15.483C60.531,15.683 60.918,15.71 62.907,15.71C65.003,15.71 65.27,15.736 65.457,15.95C65.657,16.164 65.684,16.551 65.684,18.62C65.684,21.811 65.911,21.584 62.773,21.584C61.105,21.584 60.344,21.637 60.237,21.744C60.117,21.864 60.077,23.306 60.077,27.418C60.077,32.718 60.063,32.931 59.823,33.065C59.663,33.145 58.541,33.198 57.086,33.198C55.03,33.198 54.59,33.158 54.416,32.985Z" style="fill:#e6e5e5;fill-rule:nonzero;"/><path d="M84.481,33.051C84.254,32.931 84.24,32.21 84.24,21.01C84.24,11.918 84.28,9.048 84.401,8.928C84.521,8.808 85.322,8.768 87.204,8.768C89.674,8.768 89.847,8.781 89.981,9.021C90.061,9.195 90.114,11.157 90.114,14.495C90.114,17.352 90.154,19.781 90.194,19.902C90.315,20.222 90.702,20.155 91.049,19.755C92.851,17.632 94.453,15.977 94.814,15.857C95.254,15.696 101.008,15.643 101.382,15.79C101.515,15.843 101.595,16.03 101.595,16.27C101.595,16.591 101.382,16.898 100.554,17.766C98.338,20.062 95.721,22.932 95.721,23.052C95.721,23.119 97.083,25.202 98.752,27.685C100.421,30.168 101.809,32.357 101.836,32.557C101.929,33.158 101.622,33.212 98.271,33.172C95.494,33.132 95.187,33.105 94.934,32.878C94.787,32.744 93.986,31.636 93.158,30.421C92.33,29.22 91.583,28.192 91.489,28.165C91.236,28.058 90.568,28.606 90.328,29.113C90.168,29.447 90.114,29.968 90.114,31.169C90.114,32.451 90.074,32.824 89.901,32.985C89.727,33.158 89.3,33.198 87.204,33.198C85.762,33.198 84.614,33.132 84.481,33.051Z" style="fill:#e6e5e5;fill-rule:nonzero;"/><path d="M103.424,32.958C103.224,32.731 103.197,31.943 103.197,24.427C103.197,16.577 103.211,16.137 103.438,15.937C103.651,15.736 104.052,15.71 106.174,15.71C108.497,15.71 108.684,15.723 108.938,15.977C109.205,16.244 109.205,16.417 109.205,24.454C109.205,32.491 109.205,32.664 108.938,32.931C108.684,33.185 108.497,33.198 106.161,33.198C103.892,33.198 103.611,33.172 103.424,32.958Z" style="fill:#e6e5e5;fill-rule:nonzero;"/><path d="M43.389,13.854L43.055,13.761L43.015,11.371C42.989,9.555 43.029,8.968 43.149,8.874C43.389,8.728 48.355,8.741 48.596,8.901C48.863,9.075 48.889,13.467 48.622,13.734C48.422,13.934 43.99,14.041 43.389,13.854Z" style="fill:#e6e5e5;fill-rule:nonzero;"/><path d="M103.798,13.881C103.264,13.747 103.197,13.48 103.197,11.291C103.197,9.555 103.237,9.155 103.411,8.981C103.585,8.808 104.025,8.768 106.201,8.768L108.804,8.768L109.005,9.088C109.192,9.368 109.218,9.769 109.178,11.491C109.152,12.96 109.085,13.614 108.965,13.734C108.844,13.867 108.164,13.907 106.428,13.934C105.133,13.947 103.945,13.921 103.798,13.881Z" style="fill:#e6e5e5;fill-rule:nonzero;"/><path d="M18.177,17.283C18.177,16.467 17.514,15.804 16.698,15.804C15.882,15.804 15.219,16.467 15.219,17.283L15.219,31.923C15.219,32.739 15.882,33.402 16.698,33.402C17.514,33.402 18.177,32.739 18.177,31.923L18.177,17.283Z" style="fill:url(#_Linear1);"/></g><rect x="0" y="0" width="124.424" height="42.337" style="fill:none;"/></g><defs><linearGradient id="_Linear1" x1="0" y1="0" x2="1" y2="0" gradientUnits="userSpaceOnUse" gradientTransform="matrix(8.82979e-16,14.4201,-14.4201,8.82979e-16,16.4329,17.0273)"><stop offset="0" style="stop-color:#d914af;stop-opacity:1"/><stop offset="1" style="stop-color:#f42b7a;stop-opacity:1"/></linearGradient></defs></svg>