<?xml version="1.0" encoding="UTF-8" standalone="no"?><!DOCTYPE svg PUBLIC "-//W3C//DTD SVG 1.1//EN" "http://www.w3.org/Graphics/SVG/1.1/DTD/svg11.dtd"><svg width="116" height="31" viewBox="0 0 116 31" version="1.1" xmlns="http://www.w3.org/2000/svg" xmlns:xlink="http://www.w3.org/1999/xlink" xml:space="preserve" xmlns:serif="http://www.serif.com/" style="fill-rule:evenodd;clip-rule:evenodd;stroke-linejoin:round;stroke-miterlimit:2;"><g><path d="M70.482,30.286C68.119,29.958 66.215,29.384 64.427,28.432C62.819,27.595 62.802,27.48 63.852,25.429C65.132,22.902 65.411,22.492 65.871,22.492C66.084,22.492 66.872,22.787 67.627,23.132C70.4,24.428 73.288,24.871 74.24,24.116C74.781,23.689 74.781,23.23 74.24,22.869C73.912,22.656 73.255,22.574 71.483,22.475C70.219,22.41 68.841,22.245 68.431,22.114C66.232,21.409 64.804,20.276 63.967,18.586C63.491,17.634 63.426,17.306 63.377,15.928C63.327,14.648 63.377,14.155 63.672,13.302C64.361,11.235 65.871,9.807 68.382,8.839C71.532,7.624 76.307,7.969 79.753,9.659C80.771,10.168 81.001,10.332 81.033,10.709C81.099,11.235 78.9,15.173 78.342,15.55C77.981,15.78 77.85,15.731 76.291,15.025C74.781,14.336 74.47,14.254 73.124,14.188C71.335,14.09 70.81,14.287 70.81,15.025C70.81,15.78 71.401,15.961 74.256,16.108C75.618,16.174 76.997,16.305 77.341,16.387C79.228,16.879 80.968,18.274 81.69,19.866C82.281,21.13 82.313,23.706 81.755,25.281C80.787,28.104 78.277,29.843 74.453,30.368C72.894,30.565 72.402,30.565 70.482,30.286Z" style="fill:#e6e5e5;fill-rule:nonzero;"/><path d="M7.977,29.794C7.731,29.548 7.715,28.235 7.715,14.96C7.715,2.455 7.748,0.355 7.945,0.174C8.125,0.027 9.717,0.01 14.312,0.06C19.415,0.109 20.564,0.158 21.22,0.388C24.994,1.668 27.078,4.703 27.078,8.872C27.078,9.725 26.996,10.759 26.898,11.169C26.684,12.137 26.799,12.498 27.439,12.876C29.113,13.844 30.278,15.288 30.967,17.257C31.328,18.324 31.394,18.75 31.394,20.687C31.41,22.327 31.345,23.132 31.131,23.788C30.18,26.824 28.342,28.645 25.273,29.564C24.092,29.925 23.78,29.942 16.149,30.007C8.995,30.056 8.224,30.04 7.977,29.794ZM22.992,21.802C23.911,21.294 24.207,20.309 23.714,19.374C23.206,18.389 22.795,18.307 18.742,18.307C15.674,18.307 15.066,18.34 14.935,18.553C14.705,18.914 14.722,21.72 14.968,21.966C15.116,22.114 16.182,22.163 18.759,22.163C22.139,22.163 22.402,22.147 22.992,21.802ZM19.021,11.317C19.989,10.414 19.842,8.56 18.775,8.067C18.217,7.821 15.231,7.821 14.968,8.084C14.705,8.346 14.705,11.202 14.968,11.464C15.099,11.596 15.772,11.661 16.904,11.661C18.447,11.661 18.693,11.628 19.021,11.317Z" style="fill:#e6e5e5;fill-rule:nonzero;"/><path d="M34.331,29.843C34.052,29.564 34.052,9.019 34.331,8.74C34.578,8.494 40.649,8.461 41.027,8.707C41.24,8.839 41.273,10.201 41.273,19.292C41.273,28.383 41.24,29.745 41.027,29.876C40.649,30.122 34.578,30.089 34.331,29.843Z" style="fill:#e6e5e5;fill-rule:nonzero;"/><path d="M48.181,29.777C47.951,29.564 47.919,28.711 47.919,22.967C47.919,18.75 47.853,16.289 47.755,16.075C47.59,15.796 47.394,15.764 45.785,15.764C43.357,15.764 43.455,15.928 43.521,11.907C43.554,9.413 43.619,8.839 43.816,8.707C43.947,8.625 44.801,8.543 45.703,8.543C46.606,8.543 47.459,8.461 47.59,8.379C47.787,8.248 47.853,7.559 47.919,4.326C47.968,2.176 48.066,0.322 48.132,0.224C48.312,-0.072 54.663,-0.072 54.942,0.207C55.09,0.355 55.139,1.471 55.139,4.195C55.139,7.674 55.172,8.018 55.434,8.264C55.697,8.511 56.173,8.543 58.618,8.543C61.194,8.543 61.522,8.576 61.752,8.839C61.998,9.101 62.031,9.577 62.031,12.121C62.031,16.043 62.31,15.764 58.454,15.764C56.402,15.764 55.467,15.829 55.336,15.961C55.188,16.108 55.139,17.88 55.139,22.935C55.139,29.449 55.122,29.712 54.827,29.876C54.63,29.974 53.252,30.04 51.463,30.04C48.936,30.04 48.394,29.991 48.181,29.777Z" style="fill:#e6e5e5;fill-rule:nonzero;"/><path d="M85.136,29.86C84.857,29.712 84.84,28.826 84.84,15.058C84.84,3.883 84.89,0.355 85.037,0.207C85.185,0.06 86.17,0.01 88.483,0.01C91.519,0.01 91.733,0.027 91.897,0.322C91.995,0.535 92.061,2.948 92.061,7.05C92.061,10.562 92.11,13.548 92.159,13.696C92.307,14.09 92.783,14.008 93.209,13.515C95.425,10.906 97.394,8.872 97.837,8.724C98.378,8.527 105.451,8.461 105.91,8.642C106.075,8.707 106.173,8.937 106.173,9.233C106.173,9.626 105.91,10.004 104.893,11.07C102.169,13.893 98.953,17.421 98.953,17.569C98.953,17.651 100.627,20.211 102.678,23.263C104.729,26.315 106.436,29.006 106.468,29.252C106.583,29.991 106.206,30.056 102.087,30.007C98.674,29.958 98.296,29.925 97.985,29.646C97.804,29.482 96.82,28.12 95.802,26.627C94.785,25.15 93.866,23.886 93.751,23.854C93.439,23.722 92.619,24.395 92.323,25.019C92.126,25.429 92.061,26.069 92.061,27.546C92.061,29.121 92.011,29.581 91.798,29.777C91.585,29.991 91.06,30.04 88.483,30.04C86.711,30.04 85.3,29.958 85.136,29.86Z" style="fill:#e6e5e5;fill-rule:nonzero;"/><path d="M108.421,29.745C108.175,29.466 108.142,28.498 108.142,19.259C108.142,9.61 108.159,9.068 108.438,8.822C108.7,8.576 109.192,8.543 111.802,8.543C114.657,8.543 114.887,8.56 115.198,8.872C115.527,9.2 115.527,9.413 115.527,19.292C115.527,29.17 115.527,29.384 115.198,29.712C114.887,30.024 114.657,30.04 111.785,30.04C108.996,30.04 108.651,30.007 108.421,29.745Z" style="fill:#e6e5e5;fill-rule:nonzero;"/><path d="M34.627,6.262L34.217,6.148L34.167,3.21C34.134,0.978 34.184,0.256 34.331,0.142C34.627,-0.039 40.731,-0.023 41.027,0.174C41.355,0.388 41.388,5.787 41.059,6.115C40.813,6.361 35.365,6.492 34.627,6.262Z" style="fill:#e6e5e5;fill-rule:nonzero;"/><path d="M108.881,6.295C108.224,6.131 108.142,5.803 108.142,3.112C108.142,0.978 108.191,0.486 108.405,0.273C108.618,0.06 109.16,0.01 111.834,0.01L115.034,0.01L115.28,0.404C115.51,0.749 115.543,1.241 115.494,3.358C115.461,5.163 115.379,5.967 115.231,6.115C115.084,6.279 114.247,6.328 112.113,6.361C110.522,6.377 109.061,6.344 108.881,6.295Z" style="fill:#e6e5e5;fill-rule:nonzero;"/><path d="M3.637,10.477C3.637,9.474 2.822,8.659 1.818,8.659C0.815,8.659 0,9.474 0,10.477L0,28.472C0,29.476 0.815,30.291 1.818,30.291C2.822,30.291 3.637,29.476 3.637,28.472L3.637,10.477Z" style="fill:url(#_Linear1);"/></g><defs><linearGradient id="_Linear1" x1="0" y1="0" x2="1" y2="0" gradientUnits="userSpaceOnUse" gradientTransform="matrix(1.08534e-15,17.725,-17.725,1.08534e-15,1.4925,10.1629)"><stop offset="0" style="stop-color:#d914af;stop-opacity:1"/><stop offset="1" style="stop-color:#f42b7a;stop-opacity:1"/></linearGradient></defs></svg>