<?xml version="1.0" encoding="UTF-8" standalone="no"?><!DOCTYPE svg PUBLIC "-//W3C//DTD SVG 1.1//EN" "http://www.w3.org/Graphics/SVG/1.1/DTD/svg11.dtd"><svg width="140" height="43" viewBox="0 0 140 43" version="1.1" xmlns="http://www.w3.org/2000/svg" xmlns:xlink="http://www.w3.org/1999/xlink" xml:space="preserve" xmlns:serif="http://www.serif.com/" style="fill-rule:evenodd;clip-rule:evenodd;stroke-linejoin:round;stroke-miterlimit:2;"><g><g><g><path d="M110.111,20.995C109.306,20.454 108.418,20.069 107.577,19.588C107.033,19.275 106.453,18.998 105.979,18.601C105.174,17.928 105.34,16.604 106.181,16.027C107.388,15.209 109.388,15.666 109.602,17.338C109.602,17.374 109.637,17.398 109.672,17.398L111.495,17.398C111.543,17.398 111.578,17.362 111.566,17.314C111.472,16.159 111.034,15.197 110.229,14.583C109.459,13.994 108.584,13.681 107.648,13.681C102.831,13.681 102.393,18.866 104.985,20.502C105.281,20.694 107.826,21.994 108.726,22.559C109.625,23.124 109.909,24.159 109.519,24.977C109.163,25.723 108.24,26.24 107.317,26.18C106.311,26.12 105.53,25.567 105.257,24.7C105.21,24.544 105.186,24.243 105.186,24.111C105.186,24.075 105.151,24.039 105.115,24.039L103.138,24.039C103.103,24.039 103.067,24.075 103.067,24.111C103.067,25.567 103.423,26.372 104.393,27.106C105.305,27.804 106.299,28.093 107.329,28.093C110.028,28.093 111.424,26.541 111.708,24.929C111.957,23.353 111.495,21.934 110.111,20.995Z" style="fill:#fff;fill-rule:nonzero;"/><path d="M24.28,13.946L23.404,13.946L22.445,13.946C22.409,13.946 22.386,13.97 22.374,13.994L20.752,19.431C20.729,19.503 20.634,19.503 20.61,19.431L18.988,13.994C18.977,13.958 18.953,13.946 18.917,13.946L17.959,13.946L17.083,13.946L15.899,13.946C15.863,13.946 15.828,13.982 15.828,14.018L15.828,27.9C15.828,27.936 15.863,27.972 15.899,27.972L17.876,27.972C17.911,27.972 17.947,27.936 17.947,27.9L17.947,17.35C17.947,17.266 18.065,17.254 18.089,17.326L19.722,22.8L19.841,23.184C19.853,23.221 19.876,23.233 19.912,23.233L21.427,23.233C21.462,23.233 21.486,23.209 21.498,23.184L21.616,22.8L23.25,17.326C23.273,17.242 23.392,17.266 23.392,17.35L23.392,27.9C23.392,27.936 23.427,27.972 23.463,27.972L25.44,27.972C25.475,27.972 25.511,27.936 25.511,27.9L25.511,14.018C25.511,13.982 25.475,13.946 25.44,13.946L24.28,13.946Z" style="fill:#fff;fill-rule:nonzero;"/><path d="M79.843,13.946C79.807,13.946 79.784,13.97 79.772,13.994L78.15,19.431C78.127,19.503 78.032,19.503 78.008,19.431L76.387,13.994C76.375,13.958 76.351,13.946 76.316,13.946L73.309,13.946C73.273,13.946 73.238,13.982 73.238,14.018L73.238,27.9C73.238,27.936 73.273,27.972 73.309,27.972L75.286,27.972C75.321,27.972 75.357,27.936 75.357,27.9L75.357,17.35C75.357,17.266 75.475,17.254 75.499,17.326L77.132,22.8L77.251,23.184C77.262,23.221 77.286,23.233 77.322,23.233L78.837,23.233C78.872,23.233 78.896,23.209 78.908,23.184L79.026,22.8L80.66,17.326C80.683,17.242 80.802,17.266 80.802,17.35L80.802,27.9C80.802,27.936 80.837,27.972 80.873,27.972L82.85,27.972C82.885,27.972 82.921,27.936 82.921,27.9L82.921,14.018C82.921,13.982 82.885,13.946 82.85,13.946L79.843,13.946Z" style="fill:#fff;fill-rule:nonzero;"/><path d="M54.346,13.946L50.665,13.946L48.688,13.946L45.006,13.946C44.971,13.946 44.935,13.982 44.935,14.018L44.935,15.75C44.935,15.786 44.971,15.822 45.006,15.822L48.617,15.822L48.617,27.9C48.617,27.936 48.652,27.972 48.688,27.972L50.665,27.972C50.7,27.972 50.736,27.936 50.736,27.9L50.736,15.822L54.346,15.822C54.381,15.822 54.417,15.786 54.417,15.75L54.417,14.018C54.417,13.982 54.393,13.946 54.346,13.946Z" style="fill:#fff;fill-rule:nonzero;"/><path d="M66.005,27.973L67.805,27.973C67.852,27.973 67.888,27.925 67.876,27.877L64.159,13.946C64.147,13.91 64.123,13.898 64.088,13.898L63.401,13.898L62.194,13.898L61.507,13.898C61.472,13.898 61.448,13.922 61.436,13.946L57.719,27.877C57.708,27.925 57.743,27.973 57.791,27.973L59.59,27.973C59.625,27.973 59.649,27.949 59.661,27.925L60.738,23.871C60.75,23.835 60.773,23.822 60.809,23.822L64.786,23.822C64.822,23.822 64.845,23.847 64.857,23.871L65.934,27.925C65.946,27.949 65.982,27.973 66.005,27.973ZM61.282,21.838L62.727,16.412C62.75,16.34 62.845,16.34 62.869,16.412L64.313,21.838C64.325,21.886 64.289,21.934 64.242,21.934L61.353,21.934C61.306,21.934 61.271,21.886 61.282,21.838Z" style="fill:#fff;fill-rule:nonzero;"/><path d="M96.687,27.973L98.487,27.973C98.534,27.973 98.569,27.925 98.558,27.877L94.841,13.946C94.829,13.91 94.805,13.898 94.77,13.898L94.083,13.898L92.876,13.898L92.189,13.898C92.154,13.898 92.13,13.922 92.118,13.946L88.401,27.877C88.389,27.925 88.425,27.973 88.472,27.973L90.272,27.973C90.307,27.973 90.331,27.949 90.343,27.925L91.42,23.871C91.432,23.835 91.455,23.822 91.491,23.822L95.468,23.822C95.504,23.822 95.527,23.847 95.539,23.871L96.616,27.925C96.628,27.949 96.652,27.973 96.687,27.973ZM91.964,21.838L93.408,16.412C93.432,16.34 93.527,16.34 93.55,16.412L94.995,21.838C95.006,21.886 94.971,21.934 94.924,21.934L92.035,21.934C91.988,21.934 91.952,21.886 91.964,21.838Z" style="fill:#fff;fill-rule:nonzero;"/><path d="M33.536,25.916L33.536,21.609C33.536,21.573 33.572,21.537 33.607,21.537L38.875,21.537C38.91,21.537 38.946,21.501 38.946,21.465L38.946,19.732C38.946,19.696 38.91,19.66 38.875,19.66L33.607,19.66C33.572,19.66 33.536,19.624 33.536,19.588L33.536,15.907C33.536,15.871 33.572,15.835 33.607,15.835L39.597,15.835C39.632,15.835 39.668,15.799 39.668,15.763L39.668,14.03C39.668,13.994 39.632,13.958 39.597,13.958L33.536,13.958L31.488,13.958C31.453,13.958 31.417,13.994 31.417,14.03L31.417,27.9C31.417,27.937 31.453,27.973 31.488,27.973L39.845,27.973C39.881,27.973 39.917,27.937 39.917,27.9L39.917,26.072C39.917,26.036 39.881,26 39.845,26L33.596,26C33.56,25.988 33.536,25.964 33.536,25.916Z" style="fill:#fff;fill-rule:nonzero;"/><path d="M128.174,27.852L121.332,20.671C121.308,20.646 121.308,20.598 121.332,20.574L127.488,14.078C127.535,14.03 127.5,13.958 127.44,13.958L124.919,13.958C124.895,13.958 124.883,13.97 124.871,13.982L119.651,19.492C119.604,19.54 119.533,19.504 119.533,19.444L119.533,14.03C119.533,13.994 119.497,13.958 119.462,13.958L117.485,13.958C117.45,13.958 117.414,13.994 117.414,14.03L117.414,27.913C117.414,27.949 117.45,27.985 117.485,27.985L119.462,27.985C119.497,27.985 119.533,27.949 119.533,27.913L119.533,21.801C119.533,21.741 119.616,21.705 119.651,21.753L125.57,27.961C125.582,27.973 125.605,27.985 125.617,27.985L128.139,27.985C128.185,27.973 128.222,27.888 128.174,27.852Z" style="fill:#fff;fill-rule:nonzero;"/></g></g><rect x="0" y="0" width="139.852" height="42.337" style="fill:none;"/></g></svg>