<?xml version="1.0" encoding="UTF-8" standalone="no"?><!DOCTYPE svg PUBLIC "-//W3C//DTD SVG 1.1//EN" "http://www.w3.org/Graphics/SVG/1.1/DTD/svg11.dtd"><svg width="153" height="38" viewBox="0 0 153 38" version="1.1" xmlns="http://www.w3.org/2000/svg" xmlns:xlink="http://www.w3.org/1999/xlink" xml:space="preserve" xmlns:serif="http://www.serif.com/" style="fill-rule:evenodd;clip-rule:evenodd;stroke-linecap:round;stroke-linejoin:round;"><g><g><path d="M136.18,18.83C135.449,18.339 134.644,17.99 133.881,17.553C133.387,17.269 132.861,17.018 132.432,16.658C131.701,16.047 131.852,14.847 132.614,14.323C133.71,13.58 135.525,13.995 135.718,15.512C135.718,15.545 135.75,15.567 135.782,15.567L137.436,15.567C137.479,15.567 137.511,15.534 137.501,15.49C137.415,14.443 137.017,13.57 136.287,13.013C135.589,12.478 134.794,12.194 133.946,12.194C129.575,12.194 129.178,16.898 131.529,18.383C131.798,18.557 134.107,19.736 134.923,20.249C135.739,20.762 135.997,21.701 135.643,22.443C135.32,23.12 134.483,23.589 133.645,23.534C132.732,23.48 132.023,22.978 131.776,22.192C131.733,22.05 131.712,21.777 131.712,21.657C131.712,21.624 131.68,21.592 131.648,21.592L129.854,21.592C129.822,21.592 129.79,21.624 129.79,21.657C129.79,22.978 130.112,23.709 130.992,24.375C131.819,25.008 132.722,25.27 133.656,25.27C136.104,25.27 137.372,23.862 137.629,22.399C137.855,20.969 137.436,19.682 136.18,18.83Z" style="fill:#fff;fill-rule:nonzero;"/><path d="M58.308,12.434L57.513,12.434L56.643,12.434C56.611,12.434 56.589,12.456 56.579,12.478L55.107,17.411C55.086,17.477 55,17.477 54.979,17.411L53.507,12.478C53.496,12.445 53.475,12.434 53.443,12.434L52.573,12.434L51.778,12.434L50.704,12.434C50.672,12.434 50.64,12.467 50.64,12.5L50.64,25.095C50.64,25.128 50.672,25.16 50.704,25.16L52.498,25.16C52.53,25.16 52.562,25.128 52.562,25.095L52.562,15.523C52.562,15.447 52.67,15.436 52.691,15.501L54.173,20.467L54.28,20.816C54.291,20.849 54.313,20.86 54.345,20.86L55.72,20.86C55.752,20.86 55.773,20.838 55.784,20.816L55.891,20.467L57.373,15.501C57.395,15.425 57.502,15.447 57.502,15.523L57.502,25.095C57.502,25.128 57.535,25.16 57.567,25.16L59.36,25.16C59.392,25.16 59.425,25.128 59.425,25.095L59.425,12.5C59.425,12.467 59.392,12.434 59.36,12.434L58.308,12.434Z" style="fill:#fff;fill-rule:nonzero;"/><path d="M108.719,12.434C108.687,12.434 108.665,12.456 108.654,12.478L107.183,17.411C107.162,17.477 107.076,17.477 107.054,17.411L105.583,12.478C105.572,12.445 105.551,12.434 105.518,12.434L102.791,12.434C102.758,12.434 102.726,12.467 102.726,12.5L102.726,25.095C102.726,25.128 102.758,25.16 102.791,25.16L104.584,25.16C104.616,25.16 104.649,25.128 104.649,25.095L104.649,15.523C104.649,15.447 104.756,15.436 104.777,15.501L106.259,20.467L106.367,20.816C106.378,20.849 106.399,20.86 106.431,20.86L107.806,20.86C107.838,20.86 107.86,20.838 107.87,20.816L107.978,20.467L109.46,15.501C109.481,15.425 109.589,15.447 109.589,15.523L109.589,25.095C109.589,25.128 109.621,25.16 109.653,25.16L111.447,25.16C111.479,25.16 111.511,25.128 111.511,25.095L111.511,12.5C111.511,12.467 111.479,12.434 111.447,12.434L108.719,12.434Z" style="fill:#fff;fill-rule:nonzero;"/><path d="M85.586,12.434L82.246,12.434L80.453,12.434L77.113,12.434C77.08,12.434 77.048,12.467 77.048,12.5L77.048,14.071C77.048,14.104 77.08,14.137 77.113,14.137L80.388,14.137L80.388,25.095C80.388,25.128 80.42,25.16 80.453,25.16L82.246,25.16C82.278,25.16 82.31,25.128 82.31,25.095L82.31,14.137L85.586,14.137C85.618,14.137 85.65,14.104 85.65,14.071L85.65,12.5C85.65,12.467 85.629,12.434 85.586,12.434Z" style="fill:#fff;fill-rule:nonzero;"/><path d="M96.164,25.161L97.797,25.161C97.84,25.161 97.872,25.117 97.861,25.073L94.489,12.435C94.478,12.402 94.457,12.391 94.425,12.391L93.802,12.391L92.706,12.391L92.083,12.391C92.051,12.391 92.03,12.413 92.019,12.435L88.647,25.073C88.636,25.117 88.668,25.161 88.711,25.161L90.344,25.161C90.376,25.161 90.397,25.139 90.408,25.117L91.385,21.439C91.396,21.406 91.418,21.395 91.45,21.395L95.058,21.395C95.09,21.395 95.112,21.417 95.123,21.439L96.1,25.117C96.111,25.139 96.143,25.161 96.164,25.161ZM91.879,19.595L93.19,14.672C93.211,14.607 93.297,14.607 93.318,14.672L94.629,19.595C94.639,19.638 94.607,19.682 94.564,19.682L91.944,19.682C91.901,19.682 91.869,19.638 91.879,19.595Z" style="fill:#fff;fill-rule:nonzero;"/><path d="M124.001,25.161L125.634,25.161C125.676,25.161 125.709,25.117 125.698,25.073L122.326,12.435C122.315,12.402 122.294,12.391 122.261,12.391L121.638,12.391L120.543,12.391L119.92,12.391C119.888,12.391 119.866,12.413 119.856,12.435L116.483,25.073C116.473,25.117 116.505,25.161 116.548,25.161L118.18,25.161C118.213,25.161 118.234,25.139 118.245,25.117L119.222,21.439C119.233,21.406 119.254,21.395 119.286,21.395L122.895,21.395C122.927,21.395 122.949,21.417 122.959,21.439L123.937,25.117C123.947,25.139 123.969,25.161 124.001,25.161ZM119.716,19.595L121.026,14.672C121.048,14.607 121.134,14.607 121.155,14.672L122.465,19.595C122.476,19.638 122.444,19.682 122.401,19.682L119.781,19.682C119.738,19.682 119.705,19.638 119.716,19.595Z" style="fill:#fff;fill-rule:nonzero;"/><path d="M66.706,23.294L66.706,19.387C66.706,19.354 66.738,19.322 66.77,19.322L71.55,19.322C71.582,19.322 71.614,19.289 71.614,19.256L71.614,17.684C71.614,17.652 71.582,17.619 71.55,17.619L66.77,17.619C66.738,17.619 66.706,17.586 66.706,17.553L66.706,14.214C66.706,14.181 66.738,14.148 66.77,14.148L72.205,14.148C72.237,14.148 72.269,14.115 72.269,14.083L72.269,12.511C72.269,12.478 72.237,12.446 72.205,12.446L66.706,12.446L64.848,12.446C64.816,12.446 64.784,12.478 64.784,12.511L64.784,25.095C64.784,25.128 64.816,25.161 64.848,25.161L72.43,25.161C72.462,25.161 72.495,25.128 72.495,25.095L72.495,23.436C72.495,23.403 72.462,23.371 72.43,23.371L66.76,23.371C66.728,23.36 66.706,23.338 66.706,23.294Z" style="fill:#fff;fill-rule:nonzero;"/><path d="M152.568,25.052L146.361,18.536C146.339,18.514 146.339,18.47 146.361,18.448L151.945,12.555C151.988,12.511 151.956,12.446 151.902,12.446L149.615,12.446C149.593,12.446 149.583,12.456 149.572,12.467L144.836,17.466C144.793,17.51 144.728,17.477 144.728,17.422L144.728,12.511C144.728,12.478 144.696,12.446 144.664,12.446L142.87,12.446C142.838,12.446 142.806,12.478 142.806,12.511L142.806,25.106C142.806,25.139 142.838,25.172 142.87,25.172L144.664,25.172C144.696,25.172 144.728,25.139 144.728,25.106L144.728,19.562C144.728,19.507 144.803,19.474 144.836,19.518L150.205,25.15C150.216,25.161 150.238,25.172 150.248,25.172L152.536,25.172C152.578,25.161 152.611,25.084 152.568,25.052Z" style="fill:#fff;fill-rule:nonzero;"/></g><g><path d="M37.658,0.125L22.233,11.754L25.101,4.901L37.658,0.125Z" style="fill:#e17726;fill-rule:nonzero;stroke:#e17726;stroke-width:0.25px;"/><path d="M2.078,0.125L17.366,11.863L14.635,4.901L2.078,0.125Z" style="fill:#e27625;fill-rule:nonzero;stroke:#e27625;stroke-width:0.25px;"/><path d="M32.105,27.089L28,33.478L36.789,35.943L39.306,27.229L32.105,27.089Z" style="fill:#e27625;fill-rule:nonzero;stroke:#e27625;stroke-width:0.25px;"/><path d="M0.445,27.229L2.948,35.943L11.721,33.478L7.632,27.089L0.445,27.229Z" style="fill:#e27625;fill-rule:nonzero;stroke:#e27625;stroke-width:0.25px;"/><path d="M11.248,16.297L8.806,20.05L17.503,20.453L17.213,10.917L11.248,16.297Z" style="fill:#e27625;fill-rule:nonzero;stroke:#e27625;stroke-width:0.25px;"/><path d="M28.489,16.297L22.431,10.808L22.233,20.453L30.93,20.05L28.489,16.297Z" style="fill:#e27625;fill-rule:nonzero;stroke:#e27625;stroke-width:0.25px;"/><path d="M11.721,33.478L16.984,30.889L12.453,27.291L11.721,33.478Z" style="fill:#e27625;fill-rule:nonzero;stroke:#e27625;stroke-width:0.25px;"/><path d="M22.752,30.889L28,33.478L27.283,27.291L22.752,30.889Z" style="fill:#e27625;fill-rule:nonzero;stroke:#e27625;stroke-width:0.25px;"/><path d="M28,33.478L22.752,30.889L23.179,34.362L23.133,35.835L28,33.478Z" style="fill:#d5bfb2;fill-rule:nonzero;stroke:#d5bfb2;stroke-width:0.25px;"/><path d="M11.721,33.478L16.603,35.835L16.572,34.362L16.984,30.889L11.721,33.478Z" style="fill:#d5bfb2;fill-rule:nonzero;stroke:#d5bfb2;stroke-width:0.25px;"/><path d="M16.695,24.996L12.331,23.694L15.413,22.252L16.695,24.996Z" style="fill:#233447;fill-rule:nonzero;stroke:#233447;stroke-width:0.25px;"/><path d="M23.042,24.996L24.323,22.252L27.42,23.694L23.042,24.996Z" style="fill:#233447;fill-rule:nonzero;stroke:#233447;stroke-width:0.25px;"/><path d="M11.721,33.478L12.484,27.09L7.632,27.229L11.721,33.478Z" style="fill:#cc6228;fill-rule:nonzero;stroke:#cc6228;stroke-width:0.25px;"/><path d="M27.253,27.09L28,33.478L32.104,27.229L27.253,27.09Z" style="fill:#cc6228;fill-rule:nonzero;stroke:#cc6228;stroke-width:0.25px;"/><path d="M30.93,20.05L22.233,20.453L23.042,24.996L24.323,22.252L27.42,23.694L30.93,20.05Z" style="fill:#cc6228;fill-rule:nonzero;stroke:#cc6228;stroke-width:0.25px;"/><path d="M12.331,23.694L15.413,22.252L16.695,24.996L17.503,20.453L8.806,20.05L12.331,23.694Z" style="fill:#cc6228;fill-rule:nonzero;stroke:#cc6228;stroke-width:0.25px;"/><path d="M8.807,20.05L12.453,27.291L12.331,23.694L8.807,20.05Z" style="fill:#e27525;fill-rule:nonzero;stroke:#e27525;stroke-width:0.25px;"/><path d="M27.421,23.694L27.283,27.291L30.93,20.05L27.421,23.694Z" style="fill:#e27525;fill-rule:nonzero;stroke:#e27525;stroke-width:0.25px;"/><path d="M17.503,20.453L16.695,24.996L17.717,30.361L17.946,23.29L17.503,20.453Z" style="fill:#e27525;fill-rule:nonzero;stroke:#e27525;stroke-width:0.25px;"/><path d="M22.233,20.453L21.806,23.275L22.019,30.361L23.042,24.996L22.233,20.453Z" style="fill:#e27525;fill-rule:nonzero;stroke:#e27525;stroke-width:0.25px;"/><path d="M23.042,24.997L22.019,30.362L22.752,30.889L27.283,27.291L27.421,23.694L23.042,24.997Z" style="fill:#f5841f;fill-rule:nonzero;stroke:#f5841f;stroke-width:0.25px;"/><path d="M12.331,23.694L12.453,27.291L16.985,30.889L17.717,30.362L16.695,24.997L12.331,23.694Z" style="fill:#f5841f;fill-rule:nonzero;stroke:#f5841f;stroke-width:0.25px;"/><path d="M23.133,35.835L23.179,34.362L22.782,34.021L16.954,34.021L16.572,34.362L16.603,35.835L11.721,33.478L13.429,34.905L16.893,37.339L22.828,37.339L26.307,34.905L28,33.478L23.133,35.835Z" style="fill:#c0ac9d;fill-rule:nonzero;stroke:#c0ac9d;stroke-width:0.25px;"/><path d="M22.752,30.889L22.019,30.361L17.717,30.361L16.985,30.889L16.573,34.362L16.954,34.021L22.782,34.021L23.179,34.362L22.752,30.889Z" style="fill:#161616;fill-rule:nonzero;stroke:#161616;stroke-width:0.25px;"/><path d="M38.314,12.514L39.611,6.095L37.658,0.125L22.752,11.367L28.488,16.298L36.59,18.701L38.375,16.577L37.597,16.003L38.833,14.856L37.887,14.111L39.123,13.15L38.314,12.514Z" style="fill:#763e1a;fill-rule:nonzero;stroke:#763e1a;stroke-width:0.25px;"/><path d="M0.125,6.095L1.437,12.514L0.598,13.15L1.849,14.111L0.903,14.856L2.139,16.003L1.361,16.577L3.146,18.701L11.248,16.298L16.984,11.367L2.078,0.125L0.125,6.095Z" style="fill:#763e1a;fill-rule:nonzero;stroke:#763e1a;stroke-width:0.25px;"/><path d="M36.59,18.701L28.489,16.298L30.93,20.05L27.283,27.291L32.105,27.229L39.306,27.229L36.59,18.701Z" style="fill:#f5841f;fill-rule:nonzero;stroke:#f5841f;stroke-width:0.25px;"/><path d="M11.248,16.298L3.146,18.701L0.445,27.229L7.632,27.229L12.453,27.291L8.806,20.05L11.248,16.298Z" style="fill:#f5841f;fill-rule:nonzero;stroke:#f5841f;stroke-width:0.25px;"/><path d="M22.233,20.453L22.752,11.367L25.101,4.901L14.635,4.901L16.984,11.367L17.503,20.453L17.702,23.306L17.717,30.361L22.019,30.361L22.035,23.306L22.233,20.453Z" style="fill:#f5841f;fill-rule:nonzero;stroke:#f5841f;stroke-width:0.25px;"/></g></g></svg>